<svg width="16" height="16" viewBox="0 0 16 16" xmlns="http://www.w3.org/2000/svg"><title>pointer</title><g fill-rule="nonzero" fill="none"><path d="M8 0a8 8 0 1 0 0 16A8 8 0 0 0 8 0z" fill="#FF4B34"/><path d="M11.923 4.99c.122-.365.1-.647-.068-.845-.198-.167-.48-.19-.845-.068a2.492 2.492 0 0 0-.982.616l-.913.914-3.796-.908c-.06-.019-.118-.004-.171.046l-.73.73a.176.176 0 0 0-.052.154.191.191 0 0 0 .097.138l2.9 1.592-1.479 1.479-1.107-.303a.117.117 0 0 0-.046-.006.178.178 0 0 0-.131.052l-.548.553A.195.195 0 0 0 4 9.277c.007.061.032.105.074.131l1.438 1.08 1.079 1.438c.034.042.08.066.137.074h.011a.178.178 0 0 0 .132-.051l.547-.548a.174.174 0 0 0 .046-.177l-.302-1.108L8.64 8.638l1.593 2.9c.022.05.062.08.12.091a.126.126 0 0 0 .04.006.161.161 0 0 0 .108-.034l.73-.548c.065-.054.088-.116.069-.189l-.913-3.973.919-.919c.289-.29.494-.616.616-.982z" fill="#FFF"/></g></svg>