<svg width="15" height="16" viewBox="0 0 15 16" xmlns="http://www.w3.org/2000/svg"><title>Combined Shape</title><path d="M14.818 8.934l-.287-.412a1.016 1.016 0 0 1-.01-1.148l.282-.415a1.008 1.008 0 0 0-.325-1.436l-.43-.242a.993.993 0 0 1-.482-1.03l.082-.503c.094-.582-.322-1.122-.89-1.145l-.486-.023a.95.95 0 0 1-.864-.71l-.136-.49c-.158-.569-.757-.863-1.275-.628L9.55.955A.91.91 0 0 1 8.477.707l-.325-.38a.914.914 0 0 0-1.41.01l-.32.386a.918.918 0 0 1-1.069.265L4.902.795c-.524-.226-1.117.078-1.269.65l-.129.491c-.11.412-.454.703-.855.726l-.486.03c-.565.032-.975.578-.87 1.157l.088.5a.997.997 0 0 1-.47 1.037l-.426.248c-.496.288-.638.962-.303 1.439l.287.412c.24.34.243.801.01 1.148L.19 9.05a1.008 1.008 0 0 0 .325 1.436l.43.242c.356.2.551.614.482 1.03l-.079.497c-.094.582.322 1.121.89 1.144l.486.023a.95.95 0 0 1 .864.71l.136.49c.158.569.757.863 1.275.628l.448-.203a.913.913 0 0 1 1.072.245l.325.38a.914.914 0 0 0 1.41-.01l.32-.386a.918.918 0 0 1 1.069-.265l.451.193c.524.226 1.117-.078 1.269-.65l.129-.491a.958.958 0 0 1 .855-.723l.486-.03c.565-.032.975-.578.87-1.16l-.088-.5a.997.997 0 0 1 .47-1.037l.426-.248c.499-.278.64-.955.306-1.432zm-7.32 3.933c-2.6 0-4.707-2.2-4.707-4.914 0-2.714 2.108-4.918 4.708-4.918s4.707 2.2 4.707 4.914c0 2.714-2.108 4.918-4.707 4.918zm2.768-6.157l-1.761-.134-.666-1.707a.364.364 0 0 0-.684 0l-.666 1.707-1.76.134c-.332.026-.468.458-.212.68l1.347 1.187-.423 1.789c-.079.336.272.605.556.422l1.498-.972 1.499.972c.28.183.634-.086.555-.422l-.422-1.789 1.347-1.187c.258-.222.123-.654-.208-.68z" fill-rule="nonzero" fill="#FFF"/></svg>