<?xml version="1.0" encoding="UTF-8"?>
<svg width="15px" height="16px" viewBox="0 0 15 16" version="1.1" xmlns="http://www.w3.org/2000/svg" xmlns:xlink="http://www.w3.org/1999/xlink">
    <!-- Generator: Sketch 46.2 (44496) - http://www.bohemiancoding.com/sketch -->
    <title>Combined Shape</title>
    <desc>Created with Sketch.</desc>
    <defs></defs>
    <g id="Page-1" stroke="none" stroke-width="1" fill="none" fill-rule="evenodd">
        <g id="1440_Landing_Europe" transform="translate(-727.000000, -786.000000)" fill-rule="nonzero" fill="#FFFFFF">
            <g id="Content" transform="translate(150.000000, 424.000000)">
                <g id="Compare-Table" transform="translate(0.000000, 328.000000)">
                    <g id="ExpertFares-Copy" transform="translate(502.000000, 0.000000)">
                        <g id="Rectangle-27">
                            <path d="M89.8183581,42.9335276 L89.531243,42.5215329 C89.2914546,42.1814738 89.2882995,41.7204322 89.5217777,41.3738335 L89.8025825,40.9585691 C90.130714,40.4746388 89.9761136,39.80433 89.4776061,39.5231273 L89.0485111,39.2811622 C88.6919836,39.0817045 88.4963667,38.66644 88.5657791,38.2511756 L88.647812,37.7476265 C88.7424653,37.1656023 88.3259907,36.6260855 87.7580708,36.6031969 L87.2721837,36.5803083 C86.8683296,36.5639593 86.5212674,36.276217 86.4076834,35.870762 L86.2720136,35.3802921 C86.1142581,34.8113471 85.5147871,34.5170652 84.9973489,34.7524907 L84.5493232,34.9552183 C84.1770201,35.121978 83.74477,35.0238841 83.4765856,34.7067136 L83.1516092,34.3274169 C82.7729959,33.885994 82.1104226,33.8925336 81.7412747,34.3372263 L81.4226085,34.7230626 C81.1575792,35.0402331 80.7284841,35.1481364 80.353026,34.9879163 L79.9018451,34.7949981 C79.3780968,34.569382 78.7849359,34.8734733 78.6334906,35.4456881 L78.5041311,35.9361579 C78.3937022,36.3481526 78.0497952,36.6391647 77.6490961,36.6620533 L77.163209,36.6914815 C76.5984442,36.7241795 76.1882798,37.2702359 76.2923985,37.8489903 L76.3807416,38.3492695 C76.4533091,38.764534 76.2640025,39.1830683 75.9106301,39.3857958 L75.4846902,39.6343005 C74.9893378,39.9220428 74.8473578,40.5956214 75.1817995,41.073012 L75.4689146,41.4850067 C75.708703,41.8250658 75.7118581,42.2861074 75.4783799,42.6327061 L75.1912649,43.0512403 C74.8631333,43.5351706 75.0177338,44.2054794 75.5162413,44.4866821 L75.9453363,44.7286472 C76.3018638,44.9281049 76.4974807,45.3433694 76.4280683,45.7586338 L76.3491905,46.2556433 C76.2545372,46.8376675 76.6710118,47.3771843 77.2389317,47.4000729 L77.7248188,47.4229615 C78.1286729,47.4393105 78.4757351,47.7270528 78.5893191,48.1325078 L78.7249888,48.6229777 C78.8827444,49.1919227 79.4822154,49.4862046 79.9996536,49.2507791 L80.4476793,49.0480515 C80.8199824,48.8812918 81.2522325,48.9793857 81.5204169,49.2932864 L81.8453933,49.6725831 C82.2240066,50.114006 82.8865799,50.1074664 83.2557278,49.6627737 L83.574394,49.2769374 C83.8394233,48.9597669 84.2685184,48.8518636 84.6439765,49.0120837 L85.0951574,49.2050019 C85.6189057,49.430618 86.2120665,49.1265267 86.3635119,48.5543119 L86.4928714,48.0638421 C86.6001452,47.658387 86.9440522,47.3673749 87.3479064,47.3412165 L87.8337934,47.3117883 C88.3985583,47.2790903 88.8087227,46.7330339 88.704604,46.1510097 L88.6162609,45.6507305 C88.5436934,45.235466 88.733,44.8169317 89.0863724,44.6142042 L89.5123123,44.3656995 C90.0108198,44.0877666 90.1527998,43.4109182 89.8183581,42.9335276 Z M82.4985012,46.8670957 C79.89869,46.8670957 77.7910761,44.666521 77.7910761,41.9525879 C77.7910761,39.2386548 79.89869,37.0348104 82.4985012,37.0348104 C85.0983125,37.0348104 87.2059264,39.235385 87.2059264,41.9493181 C87.2059264,44.6632512 85.0983125,46.8670957 82.4985012,46.8670957 Z M85.2655333,40.7100643 L83.5049816,40.5760026 L82.8392532,38.8691676 C82.7130488,38.5487273 82.2776435,38.5487273 82.1545942,38.8691676 L81.4888658,40.5760026 L79.728314,40.7100643 C79.3970274,40.7362227 79.2613577,41.1678362 79.5169216,41.3901825 L80.8641539,42.5771195 L80.4413691,44.3656995 C80.3624913,44.7024888 80.7127086,44.9706123 80.9966686,44.7875036 L82.4953461,43.8163733 L83.9940237,44.7875036 C84.2748286,44.9706123 84.628201,44.7024888 84.5493232,44.3656995 L84.1265384,42.5771195 L85.4737706,41.3901825 C85.7324897,41.1678362 85.59682,40.7362227 85.2655333,40.7100643 Z" id="Combined-Shape"></path>
                        </g>
                    </g>
                </g>
            </g>
        </g>
    </g>
</svg>