<svg width="24" height="24" viewBox="0 0 24 24" xmlns="http://www.w3.org/2000/svg"><title>Fill 1</title><path d="M22.768 12a1.19 1.19 0 0 0-1.184 1.058c-.532 4.787-4.628 8.542-9.56 8.542-5.29 0-9.62-4.32-9.62-9.6 0-5.28 4.33-9.6 9.62-9.6.724 0 1.381.068 2.02.204a1.2 1.2 0 0 0 1.101-.32c.667-.665.333-1.81-.59-2.003C13.723.106 12.873 0 12.023 0 5.41 0 0 5.4 0 12s5.41 12 12.024 12c6.166 0 11.286-4.695 11.95-10.68A1.19 1.19 0 0 0 22.79 12h-.021zM6.252 10.56a1.186 1.186 0 0 0 0 1.68l3.728 3.72a1.192 1.192 0 0 0 1.683 0l10.34-10.32a1.186 1.186 0 0 0 0-1.68 1.192 1.192 0 0 0-1.683 0l-8.657 8.64a1.192 1.192 0 0 1-1.683 0l-2.044-2.04a1.192 1.192 0 0 0-1.684 0z" fill="#FC5245" fill-rule="evenodd"/></svg>