<svg width="49" height="40" viewBox="0 0 49 40" xmlns="http://www.w3.org/2000/svg"><title>001-departures</title><g fill-rule="nonzero" fill="none"><path fill="#50CFE3" d="M1.59 37.959h46.309v1.978H1.59z"/><path d="M47.198 2.8c-3.363-1.927-7.185-.904-9.798.293l-7.79 3.569L16.213.042 8.234.38l11.063 11.018-7.05 3.29-7.336-2.742L0 14.195l4.439 5.415c-.47.55-.894 1.323-.509 2.136.504 1.061 1.994 1.596 4.436 1.596.501 0 1.042-.023 1.623-.068 2.682-.208 5.589-.88 7.407-1.713L45.24 8.805c2.405-1.102 3.603-2.259 3.663-3.537.03-.663-.24-1.63-1.706-2.469zM44.39 7.011L16.545 19.768c-1.549.71-4.092 1.304-6.478 1.515-2.44.215-3.743-.055-4.178-.284.09-.12.257-.31.565-.577l.723-.625-3.997-4.876 1.81-.83 7.344 2.746L22.72 11.99l-9.866-9.826 2.922-.124 13.8 6.82 8.675-3.974c3.168-1.451 5.837-1.578 7.933-.378.528.302.713.566.708.67 0 .007-.06.716-2.502 1.834z" fill="#29A5D0"/></g></svg>