<svg width="49" height="50" viewBox="0 0 49 50" xmlns="http://www.w3.org/2000/svg"><title>003-business</title><g fill-rule="nonzero" fill="none"><path d="M48.17 20.972l-9.592-6.242c-.075-.048-.158-.066-.238-.093v-2.153c0-.575-.461-1.04-1.03-1.04h-3.826L25.492 6.4a1.02 1.02 0 0 0-1.092 0l-7.992 5.043h-4.856c-.57 0-1.03.465-1.03 1.04v2.152c-.081.027-.164.046-.239.094L.691 20.972a1.045 1.045 0 0 0-.472.874v27.048c0 .575.46 1.04 1.03 1.04h46.363c.57 0 1.03-.465 1.03-1.04V21.847c0-.354-.177-.683-.471-.875zM24.947 8.51l4.65 2.934h-9.3l4.65-2.934zm-12.364 5.014H36.28v23.407l.002.009-3.485 2.136-8.387-4.619a1.024 1.024 0 0 0-1.004.01l-7.654 4.417-3.17-1.944.002-.009V13.524zM2.28 22.414l8.243-5.363v18.627l-8.243-5.054v-8.21zm0 10.643l11.428 7.006-11.428 6.593V33.057zm2.077 14.797l19.572-11.292L44.43 47.854H4.356zm42.226-1.185l-11.696-6.441 11.696-7.17v13.61zm0-16.045l-8.242 5.053V17.051l8.242 5.363v8.21z" fill="#29A5D0"/><path d="M16.704 23.927h12.363c.57 0 1.03-.465 1.03-1.04v-6.242c0-.575-.46-1.04-1.03-1.04H16.704c-.57 0-1.03.465-1.03 1.04v6.242c0 .575.46 1.04 1.03 1.04zm1.03-6.242h10.303v4.161H17.734v-4.16zM15.673 26.008h16.485v2.081H15.673zM15.673 30.169h16.485v2.081H15.673zM43.491 12.484c.264 0 .528-.101.729-.305l3.642-3.677a1.047 1.047 0 0 0 0-1.471 1.023 1.023 0 0 0-1.457 0l-3.642 3.677a1.047 1.047 0 0 0 0 1.471c.201.204.465.305.728.305zM4.642 12.18a1.022 1.022 0 0 0 1.457 0 1.047 1.047 0 0 0 0-1.472L2.456 7.031A1.023 1.023 0 0 0 1 7.03 1.047 1.047 0 0 0 1 8.5l3.642 3.678zM34.867 7.208a1.03 1.03 0 0 0 1.34-.58l2.06-5.201a1.044 1.044 0 0 0-.575-1.352 1.028 1.028 0 0 0-1.34.58l-2.06 5.201c-.211.534.046 1.14.575 1.352zM13.686 6.628a1.03 1.03 0 0 0 1.34.58c.527-.213.785-.818.574-1.352L13.539.655a1.028 1.028 0 0 0-1.34-.58 1.044 1.044 0 0 0-.573 1.352l2.06 5.201z" fill="#50CFE3"/></g></svg>