<svg width="49" height="50" viewBox="0 0 49 50" xmlns="http://www.w3.org/2000/svg"><title>002-telephone</title><g fill-rule="nonzero" fill="none"><path d="M33.958 32.712a1.031 1.031 0 0 0-1.351-.102l-2.32 1.73c-2.245 1.674-5.682 1.413-7.658-.578l-6.741-6.796c-1.976-1.993-2.233-5.457-.573-7.72l1.715-2.34a1.053 1.053 0 0 0-.1-1.361L9.7 8.258a1.03 1.03 0 0 0-1.428-.038L3.225 12.8c-3.803 3.45-4.313 9.518-1.151 13.56.32.515 2.12 3.113 10.094 11.152 7.94 8.006 10.523 9.832 11.047 10.165 1.76 1.43 3.918 2.13 6.079 2.129 2.727 0 5.457-1.115 7.388-3.277l4.542-5.089a1.053 1.053 0 0 0-.037-1.44l-7.23-7.287zm1.18 12.416c-2.746 3.075-7.53 3.47-10.664.882a1.182 1.182 0 0 0-.133-.094c-.092-.055-2.348-1.46-10.705-9.884-8.359-8.427-9.758-10.71-9.808-10.792a1.122 1.122 0 0 0-.09-.135c-2.534-3.19-2.14-8.013.875-10.75L8.93 10.44l5.9 5.947-1.183 1.614c-2.247 3.064-1.9 7.75.774 10.445l6.74 6.796c2.674 2.696 7.322 3.046 10.361.78l1.6-1.192 5.901 5.947-3.883 4.35z" fill="#29A5D0"/><path d="M27.738 6.586c-.573 0-1.038.468-1.038 1.047 0 .578.465 1.047 1.038 1.047 3.328 0 6.457 1.306 8.81 3.678a12.527 12.527 0 0 1 3.648 8.88c0 .579.465 1.047 1.038 1.047.574 0 1.039-.468 1.039-1.047 0-3.914-1.512-7.593-4.257-10.36a14.377 14.377 0 0 0-10.278-4.292z" fill="#50CFE3"/><path d="M42.42 6.437C38.301 2.287 32.827 0 27.004 0c-.573 0-1.038.468-1.038 1.047 0 .578.465 1.046 1.038 1.046 5.268 0 10.222 2.069 13.948 5.824 3.725 3.756 5.777 8.75 5.777 14.061 0 .578.465 1.047 1.038 1.047.574 0 1.038-.468 1.038-1.047 0-5.87-2.268-11.39-6.385-15.541zM32.143 16.797a7.308 7.308 0 0 1 2.128 5.18c0 .579.465 1.047 1.039 1.047.573 0 1.038-.468 1.038-1.046a9.395 9.395 0 0 0-2.737-6.66 9.244 9.244 0 0 0-6.607-2.76c-.573 0-1.038.469-1.038 1.047 0 .579.465 1.047 1.038 1.047 1.941 0 3.766.762 5.139 2.145z" fill="#50CFE3"/></g></svg>