<svg width="16" height="16" viewBox="0 0 16 16" xmlns="http://www.w3.org/2000/svg"><title>Shape</title><path d="M7.893 0a8 8 0 1 0 .215 16 8 8 0 0 0-.215-16zM7.87 12.87l-.044-.001c-.68-.02-1.16-.522-1.14-1.192.019-.659.51-1.137 1.168-1.137h.04c.699.022 1.173.518 1.153 1.207-.02.661-.503 1.123-1.177 1.123zm2.862-5.68c-.16.227-.512.51-.955.855l-.488.337c-.268.208-.43.404-.49.597-.048.152-.072.192-.076.5v.08H6.856l.006-.158c.022-.649.038-1.03.307-1.345.422-.495 1.352-1.094 1.391-1.12.133-.1.246-.214.33-.336.195-.27.282-.482.282-.69 0-.29-.086-.558-.256-.797-.164-.23-.474-.346-.922-.346-.446 0-.75.14-.932.43a1.73 1.73 0 0 0-.283.931v.08H4.858l.004-.083c.05-1.178.47-2.025 1.248-2.52.49-.315 1.098-.475 1.808-.475.93 0 1.715.226 2.333.672.626.451.944 1.128.944 2.01a2.3 2.3 0 0 1-.464 1.378z" fill-rule="nonzero" fill="#FF4B34"/></svg>