<svg width="16" height="16" viewBox="0 0 16 16" xmlns="http://www.w3.org/2000/svg"><title>Shape</title><path d="M8 0a8 8 0 1 0 0 16A8 8 0 0 0 8 0zM2.172 11.013c0-2.499 2.195-2.498 2.682-3.152l.056-.298c-.684-.347-1.167-1.183-1.167-2.16 0-1.289.838-2.333 1.871-2.333.814 0 1.504.648 1.762 1.553-1.035.329-1.801 1.451-1.801 2.785 0 .919.362 1.764.957 2.3a9.389 9.389 0 0 1-.293.142c-.48.225-1.144.537-1.624 1.163H2.172zm5.852 2.006H4.558c0-2.5 2.195-2.498 2.682-3.152l.056-.298c-.685-.347-1.168-1.183-1.168-2.16 0-1.289.838-2.333 1.872-2.333 1.033 0 1.871 1.044 1.871 2.332 0 .97-.474 1.8-1.15 2.153l.064.339c.534.621 2.656.662 2.656 3.119H8.024zm3.36-2.006c-.48-.626-1.144-.938-1.623-1.163a9.423 9.423 0 0 1-.293-.141c.594-.538.957-1.384.957-2.3 0-1.335-.766-2.457-1.8-2.786.257-.904.947-1.553 1.761-1.553 1.034 0 1.872 1.044 1.872 2.333 0 .969-.475 1.8-1.15 2.152l.064.339c.534.622 2.656.662 2.656 3.12h-2.444z" fill-rule="nonzero" fill="#FF4B34"/></svg>