<svg width="16" height="14" viewBox="0 0 16 14" xmlns="http://www.w3.org/2000/svg"><title>Combined Shape</title><path d="M10 9.625V8.167h6v4.375c0 .4-.14.744-.42 1.03-.28.285-.616.428-1.009.428H1.43c-.393 0-.73-.143-1.01-.428A1.419 1.419 0 0 1 0 12.542V8.167h6v1.458c0 .158.057.295.17.41a.543.543 0 0 0 .401.173H9.43a.544.544 0 0 0 .401-.173.566.566 0 0 0 .17-.41zM6.857 8.167h2.286v1.166H6.857V8.167zm8.723-5.405c.28.285.42.629.42 1.03v3.5H0v-3.5c0-.401.14-.745.42-1.03.28-.286.616-.429 1.009-.429H4.57V.875c0-.243.084-.45.25-.62A.819.819 0 0 1 5.43 0h5.142c.238 0 .441.085.608.255.166.17.25.377.25.62v1.458h3.142c.393 0 .73.143 1.01.429zm-5.294-.429V1.167H5.714v1.166h4.572z" fill-rule="nonzero" fill="#FF4B34"/></svg>