<?xml version="1.0" encoding="UTF-8"?>
<svg width="36px" height="13px" viewBox="0 0 36 13" version="1.1" xmlns="http://www.w3.org/2000/svg" xmlns:xlink="http://www.w3.org/1999/xlink">
    <!-- Generator: Sketch 46.2 (44496) - http://www.bohemiancoding.com/sketch -->
    <title>american_express</title>
    <desc>Created with Sketch.</desc>
    <defs>
        <polygon id="path-1" points="34.0048 0.0965263158 7.27272727e-05 0.0965263158 7.27272727e-05 6.1971 34.0048 6.1971 34.0048 0.0965263158"></polygon>
    </defs>
    <g id="Symbols" stroke="none" stroke-width="1" fill="none" fill-rule="evenodd">
        <g id="Nav-/-Footer-/-Big-/-1440" transform="translate(-1079.000000, -314.000000)">
            <g id="Nav-/-Footer-/-Big">
                <g id="Links" transform="translate(152.000000, 311.000000)">
                    <g id="We-Accept" transform="translate(677.000000, 0.000000)">
                        <g id="payments" transform="translate(90.000000, 0.000000)">
                            <g id="american_express" transform="translate(160.000000, 2.000000)">
                                <g id="Group-3" transform="translate(0.000000, 0.272042)">
                                    <mask id="mask-2" fill="white">
                                        <use xlink:href="#path-1"></use>
                                    </mask>
                                    <g id="Clip-2"></g>
                                </g>
                                <polygon id="Fill-6" fill="#FFFFFF" points="24.4055273 8.70184737 27.8324364 8.70184737 27.8324364 9.63284737 25.4546182 9.63284737 25.4546182 10.4444789 27.7655273 10.4444789 27.7655273 11.2649526 25.4546182 11.2649526 25.4546182 12.1189526 27.8324364 12.1189526 27.8324364 13.0271105 24.4055273 13.0271105"></polygon>
                                <path d="M34.4524364,10.3870789 C35.7400727,10.4541316 35.8480727,11.1058684 35.8480727,11.8010789 C35.8480727,12.6112368 35.1902545,13.0467105 34.5044364,13.0467105 L32.3026182,13.0467105 L32.3026182,12.1190263 L34.0178909,12.1190263 C34.3088,12.1190263 34.7422545,12.1190263 34.7422545,11.7038158 C34.7422545,11.5067105 34.6662545,11.3807105 34.3564364,11.3475526 C34.2186182,11.3276579 33.7095273,11.2989211 33.6320727,11.2974474 C32.4688,11.2665 32.1975273,10.6799737 32.1975273,9.96597368 C32.1975273,9.15507895 32.7600727,8.71186842 33.4466182,8.71186842 L35.6477091,8.71186842 L35.6477091,9.63881579 L34.0368,9.63881579 C33.6706182,9.6425 33.2749818,9.59497368 33.2749818,10.0142368 C33.2749818,10.2798684 33.4702545,10.3332895 33.7178909,10.3576053 C33.8040727,10.3576053 34.3757091,10.3878158 34.4524364,10.3870789" id="Fill-8" fill="#FFFFFF"></path>
                                <path d="M30.5056727,10.3870789 C31.7940364,10.4541316 31.9020364,11.1058684 31.9020364,11.8010789 C31.9020364,12.6112368 31.2449455,13.0467105 30.5584,13.0467105 L28.3573091,13.0467105 L28.3573091,12.1190263 L30.0725818,12.1190263 C30.3627636,12.1190263 30.7969455,12.1190263 30.7969455,11.7038158 C30.7969455,11.5067105 30.7202182,11.3807105 30.4104,11.3475526 C30.2725818,11.3276579 29.7627636,11.2989211 29.6867636,11.2974474 C28.5220364,11.2665 28.2529455,10.6799737 28.2529455,9.96597368 C28.2529455,9.15507895 28.8147636,8.71186842 29.5005818,8.71186842 L31.7016727,8.71186842 L31.7016727,9.63881579 L30.0914909,9.63881579 C29.7245818,9.6425 29.3289455,9.59497368 29.3289455,10.0142368 C29.3289455,10.2798684 29.5249455,10.3332895 29.7725818,10.3576053 C29.8580364,10.3576053 30.4296727,10.3878158 30.5056727,10.3870789" id="Fill-11" fill="#FFFFFF"></path>
                                <path d="M17.7251636,10.6777632 L16.4197091,10.6777632 L16.4197091,9.63955263 L17.7295273,9.63955263 C18.1684364,9.63955263 18.3069818,9.92434211 18.3069818,10.1365526 C18.3069818,10.4265 18.1542545,10.6777632 17.7251636,10.6777632 L17.7251636,10.6777632 Z M15.3622545,12.6211842 L13.8564364,10.8159211 L15.3622545,9.12634211 L15.3622545,12.6211842 Z M11.3557091,12.1190263 L8.93898182,12.1190263 L8.93898182,11.2650263 L11.2506182,11.2650263 L11.2506182,10.4445526 L8.93898182,10.4445526 L8.93898182,9.63292105 L11.4880727,9.63881579 L12.5084364,10.8159211 L11.3557091,12.1190263 Z M18.0782545,8.71113158 L14.3997091,8.71113158 L13.1989818,10.0532895 L12.0368,8.70192105 L7.90552727,8.70192105 L7.90552727,13.0271842 L11.9026182,13.0271842 L13.1611636,11.5980789 L14.3898909,13.0371316 L16.4011636,13.0371316 L16.4011636,11.5686053 L17.8109818,11.5686053 C18.3542545,11.5686053 19.3458909,11.5498158 19.3458909,10.0337632 C19.3458909,8.95207895 18.5931636,8.71113158 18.0782545,8.71113158 L18.0782545,8.71113158 Z" id="Fill-13" fill="#FFFFFF"></path>
                                <path d="M22.2365091,10.6194789 L20.9310545,10.6194789 L20.9310545,9.63947895 L22.2408727,9.63947895 C22.6790545,9.63947895 22.8176,9.92426842 22.8176,10.1364789 C22.8176,10.4260579 22.6656,10.6194789 22.2365091,10.6194789 M23.1412364,11.0671105 C23.7136,10.7779 23.8656,10.3914263 23.8656,9.86974211 C23.8656,8.94353158 23.1230545,8.71179474 22.6077818,8.71179474 L19.8826909,8.71179474 L19.8826909,13.0370579 L20.9310545,13.0370579 L20.9310545,11.5110579 L22.3034182,11.5110579 C22.6656,11.5110579 22.8081455,11.8780053 22.8176,12.2449526 L22.8452364,13.0370579 L23.8656,13.0370579 L23.8274182,12.1484263 C23.8274182,11.4528474 23.6379636,11.1245842 23.1412364,11.0671105" id="Fill-15" fill="#FFFFFF"></path>
                                <polygon id="Fill-17" fill="#FFFFFF" points="20.3025455 5.56514737 21.3509091 5.56514737 21.3509091 1.23472632 20.3025455 1.23472632"></polygon>
                                <polygon id="Fill-19" fill="#FFFFFF" points="11.7222909 1.23988421 15.1477455 1.23988421 15.1477455 2.17088421 12.7706545 2.17088421 12.7706545 2.98251579 15.0808364 2.98251579 15.0808364 3.80298947 12.7706545 3.80298947 12.7706545 4.65698947 15.1477455 4.65698947 15.1477455 5.56514737 11.7222909 5.56514737"></polygon>
                                <path d="M18.1236,3.14745789 L16.8181455,3.14745789 L16.8181455,2.16745789 L18.1286909,2.16745789 C18.5661455,2.16745789 18.7054182,2.45224737 18.7054182,2.66445789 C18.7054182,2.95477368 18.5526909,3.14745789 18.1236,3.14745789 M19.0290545,3.59508947 C19.6014182,3.30661579 19.7534182,2.91940526 19.7534182,2.39772105 C19.7534182,1.47077368 19.0101455,1.23977368 18.4956,1.23977368 L15.7697818,1.23977368 L15.7697818,5.56503684 L16.8181455,5.56503684 L16.8181455,4.03977368 L18.1905091,4.03977368 C18.5526909,4.03977368 18.6959636,4.40598421 18.7054182,4.77293158 L18.7337818,5.56503684 L19.7534182,5.56503684 L19.7159636,4.67640526 C19.7159636,3.98156316 19.5250545,3.6533 19.0290545,3.59508947" id="Fill-20" fill="#FFFFFF"></path>
                                <path d="M1.91974545,3.66626842 L2.54483636,2.15426842 L3.19610909,3.66626842 L1.91974545,3.66626842 Z M9.30483636,1.23984737 L8.01829091,4.14116316 L6.73647273,1.23984737 L5.0932,1.23984737 L5.0932,5.40558421 L3.26338182,1.23984737 L1.87647273,1.23984737 L0.00847272727,5.56511053 L1.11429091,5.56511053 L1.52338182,4.59947895 L3.61574545,4.59947895 L4.03065455,5.56511053 L6.14047273,5.56511053 L6.14047273,2.35432105 L7.54192727,5.56511053 L8.49501818,5.56511053 L9.92883636,2.40774211 L9.92883636,5.56511053 L10.9772,5.56511053 L10.9772,1.23984737 L9.30483636,1.23984737 Z" id="Fill-21" fill="#FFFFFF"></path>
                                <path d="M25.7286909,3.66844211 L26.3530545,2.15644211 L27.0105091,3.66844211 L25.7286909,3.66844211 Z M32.1668727,1.2376 L32.1668727,4.23249474 L30.3992364,1.2376 L28.8501455,1.2376 L28.8501455,5.29981053 L27.0646909,1.23981053 L25.6774182,1.23981053 L24.2337818,4.59023158 C24.2337818,4.59023158 23.6236,4.59023158 23.5617818,4.57512632 C23.3097818,4.52244211 22.9148727,4.34191579 22.9097818,3.57928421 L22.9097818,3.26538947 C22.9097818,2.25149474 23.4530545,2.17744211 24.1497818,2.17744211 L24.7966909,2.17744211 L24.7966909,1.2376 L23.4283273,1.2376 C22.9516,1.2376 21.9148727,1.60602105 21.8799636,3.38291579 C21.8559636,4.58028421 22.3708727,5.56728421 23.5334182,5.56728421 L24.9156,5.56728421 L25.3246909,4.60165263 L27.4163273,4.60165263 L27.8308727,5.56728421 L29.8992364,5.56728421 L29.8992364,2.39996842 L31.7854182,5.56728421 L33.2152364,5.56728421 L33.2152364,1.2376 L32.1668727,1.2376 Z" id="Fill-22" fill="#FFFFFF"></path>
                            </g>
                        </g>
                    </g>
                </g>
            </g>
        </g>
    </g>
</svg>