<?xml version="1.0" encoding="UTF-8"?>
<svg width="12px" height="12px" viewBox="0 0 12 12" version="1.1" xmlns="http://www.w3.org/2000/svg" xmlns:xlink="http://www.w3.org/1999/xlink">
    <!-- Generator: Sketch 46.2 (44496) - http://www.bohemiancoding.com/sketch -->
    <title>Shape</title>
    <desc>Created with Sketch.</desc>
    <defs></defs>
    <g id="Responsive-Home" stroke="none" stroke-width="1" fill="none" fill-rule="evenodd">
        <g id="320_Menu" transform="translate(-22.000000, -22.000000)" fill-rule="nonzero" fill="#FFFFFF">
            <g id="close" transform="translate(16.000000, 16.000000)">
                <path d="M13.4261822,12.0000282 L17.7046233,7.72158211 C18.0984589,7.32774601 18.0984589,6.68921317 17.7046233,6.29543342 C17.3107876,5.90159732 16.6723119,5.90159732 16.2784763,6.29543342 L11.9999789,10.5739358 L7.72148148,6.29537707 C7.32764585,5.90154098 6.68917011,5.90154098 6.29533447,6.29537707 C5.90155518,6.68921317 5.90155518,7.32774601 6.29533447,7.72152576 L10.5738319,11.9999718 L6.29533447,16.2784742 C5.90155518,16.6723103 5.90155518,17.3108432 6.29533447,17.7046229 C6.68917011,18.098459 7.32764585,18.098459 7.72148148,17.7046229 L11.9999789,13.4261205 L16.2784763,17.7046229 C16.6722556,18.098459 17.3107876,18.098459 17.7046233,17.7046229 C18.0984589,17.3107868 18.0984589,16.6723103 17.7046233,16.2784742 L13.4261822,12.0000282 Z" id="Shape"></path>
            </g>
        </g>
    </g>
</svg>