<?xml version="1.0" encoding="UTF-8"?>
<svg width="53px" height="10px" viewBox="0 0 53 10" version="1.1" xmlns="http://www.w3.org/2000/svg" xmlns:xlink="http://www.w3.org/1999/xlink">
    <!-- Generator: Sketch 46.2 (44496) - http://www.bohemiancoding.com/sketch -->
    <title>discover</title>
    <desc>Created with Sketch.</desc>
    <defs>
        <radialGradient cx="50%" cy="50%" fx="50%" fy="50%" r="50.1539116%" gradientTransform="translate(0.500000,0.500000),rotate(89.013937),scale(1.000000,1.001669),translate(-0.500000,-0.500000)" id="radialGradient-1">
            <stop stop-color="#FFFFFF" offset="0%"></stop>
            <stop stop-color="#F48323" offset="100%"></stop>
        </radialGradient>
    </defs>
    <g id="Symbols" stroke="none" stroke-width="1" fill="none" fill-rule="evenodd">
        <g id="Nav-/-Footer-/-Big-/-1440" transform="translate(-1009.000000, -314.000000)">
            <g id="Nav-/-Footer-/-Big">
                <g id="Links" transform="translate(152.000000, 311.000000)">
                    <g id="We-Accept" transform="translate(677.000000, 0.000000)">
                        <g id="payments" transform="translate(90.000000, 0.000000)">
                            <g id="discover" transform="translate(90.000000, 3.000000)">
                                <circle id="Oval" fill="url(#radialGradient-1)" cx="27.75" cy="5.25" r="4.25"></circle>
                                <g id="Group-20" transform="translate(0.000000, 0.281857)" fill="#FFFFFF">
                                    <path d="M4.53798947,6.95171429 C5.10001579,6.451 5.43467368,5.64457143 5.43467368,4.83814286 C5.43467368,4.03457143 5.10001579,3.256 4.53798947,2.75242857 C3.99798947,2.26314286 3.36277895,2.07457143 2.30906842,2.07457143 L1.87209474,2.07457143 L1.87209474,7.61885714 L2.30906842,7.61885714 C3.36277895,7.61885714 4.02285789,7.41742857 4.53798947,6.95171429 Z M2.6352,0.654571429 C5.27338421,0.654571429 7.11222632,2.376 7.11222632,4.851 C7.11222632,6.08385714 6.54877895,7.27814286 5.59951579,8.07171429 C4.79875263,8.73742857 3.88572632,9.03885714 2.62454211,9.03885714 L0.2457,9.03885714 L0.2457,0.654571429 L2.6352,0.654571429 Z M7.86268421,9.03857143 L7.86268421,0.654285714 L9.48623684,0.654285714 L9.48623684,9.03857143 L7.86268421,9.03857143 Z M13.4653263,3.86992857 C15.3176684,4.55064286 15.8661947,5.15492857 15.8661947,6.48707143 C15.8661947,8.1085 14.6781947,9.24135714 12.9906947,9.24135714 C11.7515368,9.24135714 10.8505895,8.74992857 10.1031158,7.64492857 L11.1518526,6.62492857 C11.5263,7.35492857 12.1508526,7.74278571 12.9267474,7.74278571 C13.6543263,7.74278571 14.1907737,7.24207143 14.1907737,6.56135714 C14.1907737,6.20921429 14.0273526,5.90921429 13.7026421,5.69492857 C13.5399316,5.59278571 13.2152211,5.44207143 12.5771684,5.21635714 C11.0509579,4.6635 10.5258789,4.0735 10.5258789,2.91564286 C10.5258789,1.54564286 11.6527737,0.514928571 13.1264053,0.514928571 C14.0401421,0.514928571 14.8778526,0.8285 15.5791421,1.44635714 L14.7293526,2.56278571 C14.3023263,2.08707143 13.9023,1.88635714 13.4155895,1.88635714 C12.7143,1.88635714 12.2027211,2.28778571 12.2027211,2.81492857 C12.2027211,3.26707143 12.4883526,3.50707143 13.4653263,3.86992857 Z M16.3782,4.85071429 C16.3782,2.415 18.3541737,0.465714286 20.8189895,0.465714286 C21.5181474,0.465714286 22.1078842,0.615 22.8198316,0.979285714 L22.8198316,2.90285714 C22.1441211,2.23785714 21.5558053,1.96 20.7813316,1.96 C19.2537,1.96 18.0543316,3.23071429 18.0543316,4.83785714 C18.0543316,6.53571429 19.2188842,7.73 20.8566474,7.73 C21.5934632,7.73 22.1689895,7.46785714 22.8198316,6.81357143 L22.8198316,8.73714286 C22.0815947,9.08928571 21.4826211,9.22714286 20.7813316,9.22714286 C18.3044368,9.22714286 16.3782,7.31714286 16.3782,4.85071429 Z M35.9995974,6.28621429 L38.2533868,0.654071429 L40.0154921,0.654071429 L36.4131237,9.25335714 L35.5391763,9.25335714 L31.9972026,0.654071429 L33.7749395,0.654071429 L35.9995974,6.28621429 Z M40.7553632,9.03878571 L40.7553632,0.6545 L45.3681,0.6545 L45.3681,2.0745 L42.3789158,2.0745 L42.3789158,3.93521429 L45.2544158,3.93521429 L45.2544158,5.3545 L42.3789158,5.3545 L42.3789158,7.61878571 L45.3681,7.61878571 L45.3681,9.03878571 L40.7553632,9.03878571 Z M51.8075289,3.1295 C51.8075289,4.41235714 51.1332395,5.25521429 49.9061605,5.50664286 L52.5329763,9.03878571 L50.5335553,9.03878571 L48.2826079,5.6695 L48.0701605,5.6695 L48.0701605,9.03878571 L46.4423447,9.03878571 L46.4423447,0.6545 L48.8574237,0.6545 C50.7332132,0.6545 51.8075289,1.55807143 51.8075289,3.1295 Z M48.5433711,4.51307143 C49.5842921,4.51307143 50.1335289,4.0595 50.1335289,3.21735714 C50.1335289,2.40235714 49.5842921,1.97235714 48.5696605,1.97235714 L48.0701605,1.97235714 L48.0701605,4.51307143 L48.5433711,4.51307143 Z" id="Combined-Shape"></path>
                                </g>
                            </g>
                        </g>
                    </g>
                </g>
            </g>
        </g>
    </g>
</svg>