<?xml version="1.0" encoding="UTF-8"?>
<svg width="16px" height="16px" viewBox="0 0 16 16" version="1.1" xmlns="http://www.w3.org/2000/svg" xmlns:xlink="http://www.w3.org/1999/xlink">
    <!-- Generator: Sketch 46.2 (44496) - http://www.bohemiancoding.com/sketch -->
    <title>google</title>
    <desc>Created with Sketch.</desc>
    <defs></defs>
    <g id="Symbols" stroke="none" stroke-width="1" fill="none" fill-rule="evenodd">
        <g id="Nav-/-Footer-/-Big-/-1440" transform="translate(-1272.000000, -312.000000)" fill-rule="nonzero" fill="#FFFFFF">
            <g id="Nav-/-Footer-/-Big">
                <g id="Links" transform="translate(152.000000, 311.000000)">
                    <g id="social_network" transform="translate(1056.000000, 1.000000)">
                        <g id="google" transform="translate(64.000000, 0.000000)">
                            <path d="M7.26658598,9.17542271 C7.21344482,9.14311594 7.15898339,9.10809179 7.1018814,9.0727657 C6.93585653,9.02626812 6.75959952,9.00211353 6.5790516,9 L6.55726703,9 C5.72747277,9 5,9.45923913 5,9.98339372 C5,10.5540459 5.62350094,11 6.41896798,11 C7.46825833,11 8,10.6684783 8,10.0163043 C8,9.95471014 7.99207834,9.89070048 7.9752448,9.82638889 C7.9042799,9.57336957 7.6504566,9.41545894 7.26658598,9.17542271 Z" id="Shape"></path>
                            <path d="M6.21844251,8 L6.21912933,8 C6.42551986,8 6.59962967,7.90906766 6.73459053,7.73641131 C6.94613223,7.4670674 7.03988367,7.02506714 6.98425095,6.55582555 C6.88637857,5.71709937 6.34962584,5.01880036 5.78952109,5.00076736 L5.76719932,5 C5.56905068,5 5.39219357,5.09131603 5.25791954,5.26320501 C5.04946854,5.52909579 4.96121169,5.95037729 5.01581418,6.41885152 C5.11402997,7.25681033 5.66211529,7.98081596 6.21054403,8 L6.21844251,8 L6.21844251,8 Z" id="Shape"></path>
                            <path d="M8,0 C3.58881817,0 0,3.58881817 0,8 C0,12.4108596 3.58881817,16 8,16 C12.4108596,16 16,12.4108596 16,8 C16,3.58881817 12.4115041,0 8,0 Z M7.07774108,11.8955933 C6.77547732,11.9829211 6.44840087,12.0270684 6.10521228,12.0270684 C5.7230323,12.0270684 5.3556755,11.9832434 5.01313139,11.8965601 C4.35027793,11.729316 3.86046886,11.4122291 3.63167647,11.0036252 C3.53307017,10.8270362 3.48312253,10.6388464 3.48312253,10.4438895 C3.48312253,10.2431322 3.53113671,10.0394747 3.6258761,9.83775075 C3.98904374,9.06372352 4.94642713,8.54297913 6.00692822,8.54297913 L6.03721904,8.54297913 C5.95118021,8.39120277 5.90961089,8.23394828 5.90961089,8.06863772 C5.90961089,7.9864658 5.92056715,7.90268267 5.94247966,7.81728833 C4.83009748,7.79215339 3.9977443,6.97752356 3.9977443,5.90348828 C3.9977443,5.14525095 4.60388303,4.40634818 5.47071618,4.10795134 C5.73012165,4.01836784 5.99468299,3.97260936 6.25473294,3.97260936 L8.63352936,3.97260936 C8.71441231,3.97260936 8.78627246,4.02513494 8.8114074,4.10215097 C8.83654233,4.17884476 8.80882945,4.26327238 8.74341416,4.31064207 L8.21139128,4.69572223 C8.17948925,4.71827922 8.14114235,4.73052445 8.10150649,4.73052445 L7.91106098,4.73052445 C8.15693225,5.02537662 8.30097478,5.44590349 8.30097478,5.9179892 C8.30097478,6.43905583 8.03738017,6.93176508 7.55756062,7.30717796 C7.18698139,7.59590752 7.17248046,7.67550149 7.17248046,7.84016757 C7.17699186,7.9307178 7.43510835,8.22621445 7.719971,8.42761621 C8.38346894,8.89680174 8.63030694,9.35728672 8.63030694,10.1255136 C8.62998469,10.9282204 8.02062354,11.6216869 7.07774108,11.8955933 Z M12.449851,7.81535487 C12.449851,7.91847257 12.3657456,8.0022557 12.2629501,8.0022557 L10.9111415,8.0022557 L10.9111415,9.35470877 C10.9111415,9.45782647 10.8270362,9.5416096 10.7248852,9.5416096 L10.339805,9.5416096 C10.2360429,9.5416096 10.1522597,9.45782647 10.1522597,9.35470877 L10.1522597,8.0022557 L8.80141787,8.0022557 C8.69830017,8.0022557 8.61451704,7.91911705 8.61451704,7.81535487 L8.61451704,7.4309192 C8.61451704,7.3278015 8.69830017,7.24337388 8.80141787,7.24337388 L10.1522597,7.24337388 L10.1522597,5.89220978 C10.1522597,5.78876984 10.2360429,5.70530895 10.339805,5.70530895 L10.7248852,5.70530895 C10.8270362,5.70530895 10.9111415,5.78876984 10.9111415,5.89220978 L10.9111415,7.24337388 L12.2626279,7.24337388 C12.3654233,7.24337388 12.4495287,7.32715701 12.4495287,7.43027471 L12.4495287,7.81535487 L12.449851,7.81535487 Z" id="Shape"></path>
                        </g>
                    </g>
                </g>
            </g>
        </g>
    </g>
</svg>