<?xml version="1.0" encoding="UTF-8"?>
<svg width="16px" height="16px" viewBox="0 0 16 16" version="1.1" xmlns="http://www.w3.org/2000/svg" xmlns:xlink="http://www.w3.org/1999/xlink">
    <!-- Generator: Sketch 46.2 (44496) - http://www.bohemiancoding.com/sketch -->
    <title>instagram</title>
    <desc>Created with Sketch.</desc>
    <defs></defs>
    <g id="Symbols" stroke="none" stroke-width="1" fill="none" fill-rule="evenodd">
        <g id="Nav-/-Footer-/-Big-/-320" transform="translate(-260.000000, -400.000000)">
            <g id="Links">
                <g transform="translate(16.000000, 320.000000)">
                    <g id="social_network" transform="translate(188.000000, 80.000000)">
                        <g id="instagram" transform="translate(56.000000, 0.000000)">
                            <path d="M8,0 C3.58881817,0 0,3.58881817 0,8 C0,12.4108596 3.58881817,16 8,16 C12.4108596,16 16,12.4108596 16,8 C16,3.58881817 12.4115041,0 8,0 Z" id="Shape" fill="#FFFFFF" fill-rule="nonzero"></path>
                            <path d="M8.00000893,3.5 C6.77787338,3.5 6.6246286,3.50518021 6.14465575,3.52707997 C5.66568322,3.54892615 5.33856217,3.62500372 5.05232901,3.7362531 C4.75641423,3.85123581 4.50546006,4.00510578 4.25527399,4.25527399 C4.00510578,4.50546006 3.85123581,4.75641423 3.7362531,5.05232901 C3.62500372,5.33856217 3.54892615,5.66568322 3.52707997,6.14465575 C3.50518021,6.6246286 3.5,6.77787338 3.5,8.00000893 C3.5,9.22212662 3.50518021,9.3753714 3.52707997,9.85534425 C3.54892615,10.3343168 3.62500372,10.6614378 3.7362531,10.947671 C3.85123581,11.2435858 4.00510578,11.4945399 4.25527399,11.744726 C4.50546006,11.9948942 4.75641423,12.1487642 5.05232901,12.2637648 C5.33856217,12.3749963 5.66568322,12.4510739 6.14465575,12.47292 C6.6246286,12.4948198 6.77787338,12.5 8.00000893,12.5 C9.22212662,12.5 9.3753714,12.4948198 9.85534425,12.47292 C10.3343168,12.4510739 10.6614378,12.3749963 10.947671,12.2637648 C11.2435858,12.1487642 11.4945399,11.9948942 11.744726,11.744726 C11.9948942,11.4945399 12.1487642,11.2435858 12.2637648,10.947671 C12.3749963,10.6614378 12.4510739,10.3343168 12.47292,9.85534425 C12.4948198,9.3753714 12.5,9.22212662 12.5,8.00000893 C12.5,6.77787338 12.4948198,6.6246286 12.47292,6.14465575 C12.4510739,5.66568322 12.3749963,5.33856217 12.2637648,5.05232901 C12.1487642,4.75641423 11.9948942,4.50546006 11.744726,4.25527399 C11.4945399,4.00510578 11.2435858,3.85123581 10.947671,3.7362531 C10.6614378,3.62500372 10.3343168,3.54892615 9.85534425,3.52707997 C9.3753714,3.50518021 9.22212662,3.5 8.00000893,3.5 Z M8.00000893,4.31080936 C9.2015487,4.31080936 9.34387932,4.3154001 9.81838616,4.33704978 C10.2571317,4.3570561 10.4954033,4.43036494 10.6539712,4.49199152 C10.8640196,4.57362442 11.013924,4.67113732 11.1713844,4.82861558 C11.3288627,4.98607596 11.4263756,5.1359804 11.5080085,5.34602881 C11.5696351,5.50459669 11.6429439,5.74286829 11.6629502,6.18161384 C11.6845999,6.65612068 11.6891906,6.7984513 11.6891906,8.00000893 C11.6891906,9.2015487 11.6845999,9.34387932 11.6629502,9.81838616 C11.6429439,10.2571317 11.5696351,10.4954033 11.5080085,10.6539712 C11.4263756,10.8640196 11.3288627,11.013924 11.1713844,11.1713844 C11.013924,11.3288627 10.8640196,11.4263756 10.6539712,11.5080085 C10.4954033,11.5696351 10.2571317,11.6429439 9.81838616,11.6629502 C9.34395077,11.6845999 9.20163802,11.6891906 8.00000893,11.6891906 C6.79836198,11.6891906 6.65606709,11.6845999 6.18161384,11.6629502 C5.74286829,11.6429439 5.50459669,11.5696351 5.34602881,11.5080085 C5.1359804,11.4263756 4.98607596,11.3288627 4.82861558,11.1713844 C4.67115519,11.013924 4.57362442,10.8640196 4.49199152,10.6539712 C4.43036494,10.4954033 4.3570561,10.2571317 4.33704978,9.81838616 C4.3154001,9.34387932 4.31080936,9.2015487 4.31080936,8.00000893 C4.31080936,6.7984513 4.3154001,6.65612068 4.33704978,6.18161384 C4.3570561,5.74286829 4.43036494,5.50459669 4.49199152,5.34602881 C4.57362442,5.1359804 4.67113732,4.98607596 4.82861558,4.82861558 C4.98607596,4.67113732 5.1359804,4.57362442 5.34602881,4.49199152 C5.50459669,4.43036494 5.74286829,4.3570561 6.18161384,4.33704978 C6.65612068,4.3154001 6.7984513,4.31080936 8.00000893,4.31080936 Z M8.00000893,5.68919064 C6.72376702,5.68919064 5.68919064,6.72376702 5.68919064,8.00000893 C5.68919064,9.27623298 6.72376702,10.3108094 8.00000893,10.3108094 C9.27623298,10.3108094 10.3108094,9.27623298 10.3108094,8.00000893 C10.3108094,6.72376702 9.27623298,5.68919064 8.00000893,5.68919064 Z M8.00000893,9.5 C7.17156901,9.5 6.5,8.82843099 6.5,8.00000893 C6.5,7.17156901 7.17156901,6.5 8.00000893,6.5 C8.82843099,6.5 9.5,7.17156901 9.5,8.00000893 C9.5,8.82843099 8.82843099,9.5 8.00000893,9.5 Z M10.9421157,5.59789398 C10.9421157,5.29965703 10.700343,5.05788433 10.402106,5.05788433 C10.1038869,5.05788433 9.86211424,5.29965703 9.86211424,5.59789398 C9.86211424,5.89613092 10.1038869,6.13788576 10.402106,6.13788576 C10.700343,6.13788576 10.9421157,5.89613092 10.9421157,5.59789398 Z" id="Combined-Shape" fill="#0A0B09"></path>
                        </g>
                    </g>
                </g>
            </g>
        </g>
    </g>
</svg>