<?xml version="1.0" encoding="UTF-8"?>
<svg width="16px" height="16px" viewBox="0 0 16 16" version="1.1" xmlns="http://www.w3.org/2000/svg" xmlns:xlink="http://www.w3.org/1999/xlink">
    <!-- Generator: Sketch 46.2 (44496) - http://www.bohemiancoding.com/sketch -->
    <title>linkedin</title>
    <desc>Created with Sketch.</desc>
    <defs></defs>
    <g id="Symbols" stroke="none" stroke-width="1" fill="none" fill-rule="evenodd">
        <g id="Nav-/-Footer-/-Big-/-320" transform="translate(-288.000000, -400.000000)" fill-rule="nonzero" fill="#FFFFFF">
            <g id="Links">
                <g transform="translate(16.000000, 320.000000)">
                    <g id="social_network" transform="translate(188.000000, 80.000000)">
                        <g id="linkedin" transform="translate(84.000000, 0.000000)">
                            <path d="M8,0 C12.4115041,0 16,3.58881817 16,8 C16,12.4108596 12.4108596,16 8,16 C3.58881817,16 0,12.4108596 0,8 C0,3.58881817 3.58881817,0 8,0 Z M12.5,11.9997449 L12.5,9.01218035 C12.5,7.41151712 11.6379172,6.66666667 10.488645,6.66666667 C9.56119823,6.66666667 9.1455971,7.17250175 8.91399276,7.52732606 L8.91399276,6.78910784 L7.16666667,6.78910784 C7.1898271,7.27810726 7.16666667,11.9997449 7.16666667,11.9997449 L8.91399276,11.9997449 L8.91399276,9.08972642 C8.91399276,8.93437919 8.92531564,8.77877686 8.97163651,8.66755947 C9.09773221,8.35635482 9.38517893,8.03418149 9.86768798,8.03418149 C10.5002252,8.03418149 10.7529312,8.51195715 10.7529312,9.21216759 L10.7529312,12 L12.5,12 L12.5,11.9997449 Z M5.38353554,5.77777778 C5.9344651,5.77777778 6.27777778,5.38238026 6.27777778,4.88851112 C6.26753659,4.38406447 5.9344651,4 5.39400948,4 C4.85355387,4 4.5,4.38381263 4.5,4.88851112 C4.5,5.38238026 4.84307992,5.77777778 5.3735271,5.77777778 L5.38353554,5.77777778 Z M6.27777778,12 L6.27777778,6.66666667 L4.5,6.66666667 L4.5,12 L6.27777778,12 Z" id="Combined-Shape"></path>
                        </g>
                    </g>
                </g>
            </g>
        </g>
    </g>
</svg>