<?xml version="1.0" encoding="UTF-8"?>
<svg width="24px" height="18px" viewBox="0 0 24 18" version="1.1" xmlns="http://www.w3.org/2000/svg" xmlns:xlink="http://www.w3.org/1999/xlink">
    <!-- Generator: Sketch 46.2 (44496) - http://www.bohemiancoding.com/sketch -->
    <title>mc_vrt_pos</title>
    <desc>Created with Sketch.</desc>
    <defs></defs>
    <g id="Symbols" stroke="none" stroke-width="1" fill="none" fill-rule="evenodd">
        <g id="Nav-/-Footer-/-Big-/-1440" transform="translate(-969.000000, -311.000000)" fill-rule="nonzero">
            <g id="Nav-/-Footer-/-Big">
                <g id="Links" transform="translate(152.000000, 311.000000)">
                    <g id="We-Accept" transform="translate(677.000000, 0.000000)">
                        <g id="payments" transform="translate(90.000000, 0.000000)">
                            <g id="mc_vrt_pos" transform="translate(50.000000, 0.000000)">
                                <path d="M4.37948718,17.8536264 L4.37948718,16.6668132 C4.39399797,16.4648957 4.317705,16.2667205 4.17007203,16.1228457 C4.02243905,15.9789708 3.81774281,15.9033097 3.60820513,15.9151648 C3.33206854,15.8977084 3.06796503,16.0265599 2.91897436,16.2514286 C2.78313762,16.0332645 2.53441607,15.9042374 2.27076923,15.9151648 C2.04121382,15.9039746 1.82267929,16.0108446 1.69641026,16.196044 L1.69641026,15.9626374 L1.26974359,15.9626374 L1.26974359,17.8536264 L1.70051282,17.8536264 L1.70051282,16.8131868 C1.68196069,16.6822596 1.72498003,16.5501805 1.81783123,16.4529929 C1.91068243,16.3558052 2.04367368,16.3036534 2.18051282,16.3107692 C2.46358974,16.3107692 2.60717949,16.4887912 2.60717949,16.8092308 L2.60717949,17.8615385 L3.03794872,17.8615385 L3.03794872,16.8131868 C3.02015786,16.6824085 3.06344025,16.5507574 3.1561193,16.4537499 C3.24879834,16.3567425 3.38132576,16.3043729 3.51794872,16.3107692 C3.80923077,16.3107692 3.94871795,16.4887912 3.94871795,16.8092308 L3.94871795,17.8615385 L4.37948718,17.8536264 Z M10.7528205,15.9626374 L10.0512821,15.9626374 L10.0512821,15.389011 L9.62051282,15.389011 L9.62051282,15.9626374 L9.23076923,15.9626374 L9.23076923,16.3384615 L9.62871795,16.3384615 L9.62871795,17.2087912 C9.62871795,17.6479121 9.80512821,17.909011 10.3097436,17.909011 C10.4982684,17.9096217 10.68314,17.8588835 10.8430769,17.7626374 L10.72,17.4105495 C10.6055802,17.4763602 10.4757191,17.5131104 10.3425641,17.5173626 C10.1374359,17.5173626 10.0594872,17.3907692 10.0594872,17.2008791 L10.0594872,16.3384615 L10.7569231,16.3384615 L10.7528205,15.9626374 Z M14.3917949,15.9151648 C14.1798805,15.9091551 13.981535,16.0154116 13.8748718,16.1920879 L13.8748718,15.9626374 L13.4523077,15.9626374 L13.4523077,17.8536264 L13.8789744,17.8536264 L13.8789744,16.7934066 C13.8789744,16.4808791 14.0184615,16.3068132 14.2892308,16.3068132 C14.3804891,16.3056095 14.4711005,16.3217403 14.5558974,16.3542857 L14.6871795,15.9586813 C14.5897378,15.9250676 14.4870779,15.9076769 14.3835897,15.9072527 L14.3917949,15.9151648 Z M8.89025641,16.112967 C8.64874359,15.974501 8.37106664,15.9058446 8.09025641,15.9151648 C7.59384615,15.9151648 7.26974359,16.1446154 7.26974359,16.5204396 C7.26974359,16.829011 7.50769231,17.0189011 7.94666667,17.0782418 L8.15179487,17.1059341 C8.38564103,17.1375824 8.49641026,17.1969231 8.49641026,17.3037363 C8.49641026,17.4501099 8.34051282,17.5331868 8.04923077,17.5331868 C7.81493384,17.5397266 7.58516989,17.4700542 7.39692308,17.3353846 L7.19179487,17.6558242 C7.44033105,17.823163 7.73801471,17.9091399 8.04102564,17.9010989 C8.60717949,17.9010989 8.93538462,17.643956 8.93538462,17.283956 C8.93538462,16.923956 8.67692308,16.7775824 8.25025641,16.7182418 L8.04512821,16.6905495 C7.86051282,16.6668132 7.71282051,16.6312088 7.71282051,16.5046154 C7.71282051,16.378022 7.85230769,16.2830769 8.08615385,16.2830769 C8.30229243,16.285498 8.51417351,16.3413438 8.70153846,16.4452747 L8.89025641,16.112967 Z M20.3179487,15.9151648 C20.1060343,15.9091551 19.9076888,16.0154116 19.8010256,16.1920879 L19.8010256,15.9626374 L19.3784615,15.9626374 L19.3784615,17.8536264 L19.8051282,17.8536264 L19.8051282,16.7934066 C19.8051282,16.4808791 19.9446154,16.3068132 20.2153846,16.3068132 C20.3066429,16.3056095 20.3972544,16.3217403 20.4820513,16.3542857 L20.6133333,15.9586813 C20.5158917,15.9250676 20.4132318,15.9076769 20.3097436,15.9072527 L20.3179487,15.9151648 Z M14.8205128,16.9041758 C14.8102518,17.1728772 14.9178882,17.4333091 15.1170018,17.6215468 C15.3161154,17.8097844 15.5882711,17.9083997 15.8666667,17.8931868 C16.1228469,17.9057551 16.3746121,17.8253011 16.5723077,17.6676923 L16.3671795,17.3353846 C16.2196864,17.4438418 16.0398323,17.5035019 15.854359,17.5054945 C15.5273232,17.4799787 15.2754027,17.2166063 15.2754027,16.9002198 C15.2754027,16.5838333 15.5273232,16.3204609 15.854359,16.2949451 C16.0398323,16.2969377 16.2196864,16.3565978 16.3671795,16.4650549 L16.5723077,16.1327473 C16.3746121,15.9751385 16.1228469,15.8946844 15.8666667,15.9072527 C15.5882711,15.8920399 15.3161154,15.9906551 15.1170018,16.1788928 C14.9178882,16.3671305 14.8102518,16.6275623 14.8205128,16.8962637 L14.8205128,16.9041758 Z M18.8164103,16.9041758 L18.8164103,15.9626374 L18.3897436,15.9626374 L18.3897436,16.1920879 C18.2427494,16.0097044 18.0137387,15.9066496 17.774359,15.9151648 C17.2079131,15.9151648 16.7487179,16.3579601 16.7487179,16.9041758 C16.7487179,17.4503915 17.2079131,17.8931868 17.774359,17.8931868 C18.0137387,17.9017021 18.2427494,17.7986472 18.3897436,17.6162637 L18.3897436,17.8457143 L18.8164103,17.8457143 L18.8164103,16.9041758 Z M17.2287179,16.9041758 C17.2476913,16.5937586 17.5205009,16.3549006 17.8427468,16.3665638 C18.1649926,16.378227 18.4184661,16.6361332 18.4132546,16.9470484 C18.408043,17.2579637 18.1460582,17.5078359 17.8235897,17.5094505 C17.6593926,17.5114539 17.5017896,17.4472374 17.3888333,17.3323057 C17.275877,17.217374 17.2178337,17.0621732 17.2287179,16.9041758 L17.2287179,16.9041758 Z M12.08,15.9151648 C11.5135541,15.9228119 11.0607877,16.3718063 11.0687179,16.918022 C11.0766482,17.4642377 11.5422721,17.9008338 12.1087179,17.8931868 C12.403844,17.9077943 12.6940729,17.8161513 12.9230769,17.636044 L12.7179487,17.3314286 C12.5559717,17.4566925 12.3553029,17.5262975 12.1476923,17.5292308 C11.8544341,17.5535506 11.5943754,17.3483744 11.5610256,17.0663736 L13.0174359,17.0663736 C13.0174359,17.0149451 13.0174359,16.9635165 13.0174359,16.9081319 C13.0174359,16.3147253 12.6358974,15.9191209 12.0861538,15.9191209 L12.08,15.9151648 Z M12.08,16.2830769 C12.2089442,16.2804261 12.3336964,16.3272916 12.4267977,16.4133581 C12.5198991,16.4994246 12.5737186,16.6176378 12.5764103,16.741978 L11.5507692,16.741978 C11.5662212,16.4778771 11.7976366,16.2740546 12.0717949,16.2830769 L12.08,16.2830769 Z M22.7692308,16.9081319 L22.7692308,15.2030769 L22.3589744,15.2030769 L22.3589744,16.1920879 C22.2119802,16.0097044 21.9829695,15.9066496 21.7435897,15.9151648 C21.1771438,15.9151648 20.7179487,16.3579601 20.7179487,16.9041758 C20.7179487,17.4503915 21.1771438,17.8931868 21.7435897,17.8931868 C21.9829695,17.9017021 22.2119802,17.7986472 22.3589744,17.6162637 L22.3589744,17.8457143 L22.7692308,17.8457143 L22.7692308,16.9081319 Z M21.1917949,16.9081319 C21.2107682,16.5977147 21.4835778,16.3588566 21.8058237,16.3705198 C22.1280696,16.3821831 22.381543,16.6400892 22.3763315,16.9510045 C22.3711199,17.2619198 22.1091351,17.5117919 21.7866667,17.5134066 C21.6224696,17.51541 21.4648665,17.4511934 21.3519102,17.3362618 C21.2389539,17.2213301 21.1809107,17.0661293 21.1917949,16.9081319 L21.1917949,16.9081319 Z M6.78564103,16.9081319 L6.78564103,15.9626374 L6.35897436,15.9626374 L6.35897436,16.1920879 C6.21198017,16.0097044 5.98296949,15.9066496 5.74358974,15.9151648 C5.17714385,15.9151648 4.71794872,16.3579601 4.71794872,16.9041758 C4.71794872,17.4503915 5.17714385,17.8931868 5.74358974,17.8931868 C5.98296949,17.9017021 6.21198017,17.7986472 6.35897436,17.6162637 L6.35897436,17.8457143 L6.78564103,17.8457143 L6.78564103,16.9081319 Z M5.19794872,16.9081319 C5.21692205,16.5977147 5.48973167,16.3588566 5.81197754,16.3705198 C6.13422341,16.3821831 6.38769687,16.6400892 6.38248532,16.9510045 C6.37727377,17.2619198 6.11528895,17.5117919 5.79282051,17.5134066 C5.6279158,17.5165284 5.46921557,17.4528014 5.35534947,17.3377376 C5.24148338,17.2226738 5.18289524,17.0668268 5.19384615,16.9081319 L5.19794872,16.9081319 Z" id="Shape" fill="#FFFFFF"></path>
                                <g id="_Group_">
                                    <rect id="Rectangle-path" fill="#FF5F00" x="8.74871795" y="1.55274725" width="6.46153846" height="11.1975824"></rect>
                                    <path d="M9.15897436,7.15252747 C9.15655849,4.96710836 10.1966859,2.9020637 11.9794872,1.55274725 C8.95175186,-0.741747999 4.60380253,-0.407534924 1.99126111,2.32051051 C-0.621280314,5.04855595 -0.621280314,9.25452098 1.99126111,11.9825664 C4.60380253,14.7106118 8.95175186,15.0448249 11.9794872,12.7503297 C10.1972531,11.4014416 9.1571892,9.33725246 9.15897436,7.15252747 L9.15897436,7.15252747 Z" id="_Path_" fill="#EB001B"></path>
                                    <path d="M23.9282051,7.15252747 C23.9281392,9.87891041 22.3137274,12.3659308 19.7706165,13.5573416 C17.2275056,14.7487525 14.2021723,14.4353858 11.9794872,12.7503297 C13.7609436,11.4002964 14.8010858,9.33638173 14.8010858,7.15153846 C14.8010858,4.9666952 13.7609436,2.90278052 11.9794872,1.55274725 C14.2021723,-0.132308867 17.2275056,-0.445675534 19.7706165,0.745735276 C22.3137274,1.93714609 23.9281392,4.42416652 23.9282051,7.15054945 L23.9282051,7.15252747 Z" id="Shape" fill="#F79E1B"></path>
                                </g>
                            </g>
                        </g>
                    </g>
                </g>
            </g>
        </g>
    </g>
</svg>