<?xml version="1.0" encoding="UTF-8"?>
<svg width="45px" height="12px" viewBox="0 0 45 12" version="1.1" xmlns="http://www.w3.org/2000/svg" xmlns:xlink="http://www.w3.org/1999/xlink">
    <!-- Generator: Sketch 46.2 (44496) - http://www.bohemiancoding.com/sketch -->
    <title>paypal</title>
    <desc>Created with Sketch.</desc>
    <defs></defs>
    <g id="Symbols" stroke="none" stroke-width="1" fill="none" fill-rule="evenodd">
        <g id="Nav-/-Footer-/-Big-/-1440" transform="translate(-1131.000000, -314.000000)" fill="#FFFFFF">
            <g id="Nav-/-Footer-/-Big">
                <g id="Links" transform="translate(152.000000, 311.000000)">
                    <g id="We-Accept" transform="translate(677.000000, 0.000000)">
                        <g id="payments" transform="translate(90.000000, 0.000000)">
                            <path d="M217.400129,3.00043038 L213.899966,3.00043038 C213.660419,3.00043038 213.456711,3.17459084 213.419295,3.41129987 L212.003662,12.3930446 C211.975564,12.5703612 212.112755,12.7300322 212.292379,12.7300322 L213.963329,12.7300322 C214.202876,12.7300322 214.406583,12.5560152 214.443999,12.3188758 L214.825754,9.89626645 C214.862597,9.65912705 215.066735,9.48496659 215.305851,9.48496659 L216.413845,9.48496659 C218.719428,9.48496659 220.050052,8.36841728 220.397689,6.1559769 C220.554233,5.18790871 220.404283,4.42742716 219.951281,3.89476012 C219.453838,3.30987364 218.571486,3.00043038 217.400129,3.00043038 Z M217.803818,6.28093058 C217.612439,7.53778378 216.652818,7.53778378 215.725022,7.53778378 L215.196758,7.53778378 L215.567332,5.19049099 C215.589408,5.04860904 215.71212,4.94417014 215.855476,4.94417014 L216.097603,4.94417014 C216.729656,4.94417014 217.325871,4.94417014 217.633942,5.30468517 C217.817723,5.51973173 217.873919,5.83936065 217.803818,6.28093058 Z M227.862631,6.24047485 C228.041682,6.24047485 228.178443,6.40071969 228.149772,6.57746243 L227.243909,12.3183019 C227.206063,12.5554413 227.003359,12.7296018 226.763239,12.7296018 L225.253564,12.7296018 C225.074943,12.7296018 224.937752,12.5697873 224.96585,12.39161 L225.040538,11.9255084 C225.040538,11.9255084 224.213091,12.8858297 222.720619,12.8858297 C221.851169,12.8858297 221.120343,12.6347747 220.609568,12.0325296 C220.052633,11.3774911 219.824985,10.4381149 219.985113,9.4558442 C220.293183,7.48656856 221.875109,6.08266883 223.727403,6.08266883 C224.534924,6.08266883 225.344165,6.25883773 225.706997,6.78590984 L225.824118,6.95590995 L225.898376,6.4867957 C225.92031,6.34491374 226.043739,6.24047485 226.18652,6.24047485 L227.862631,6.24047485 Z M225.526226,9.50505099 C225.59948,9.04095783 225.498128,8.61990269 225.242812,8.31820627 C224.987927,8.01980944 224.601011,7.86142958 224.125071,7.86142958 C223.170468,7.86142958 222.397783,8.52579292 222.246686,9.47578514 C222.167984,9.94188674 222.262025,10.3603596 222.509743,10.6543092 C222.759611,10.9502672 223.148534,11.1064952 223.635226,11.1064952 C224.604594,11.1064952 225.364521,10.4632204 225.526226,9.50505099 Z M236.789367,6.24047485 C237.025186,6.24047485 237.162951,6.50530204 237.02877,6.69882961 L231.426731,14.7911222 C231.33613,14.9221012 231.186754,15 231.027056,15 L229.344782,15 C229.107815,15 228.969621,14.7331644 229.106812,14.539063 L230.851016,12.0749937 L228.995711,6.62666922 C228.931775,6.43715854 229.071403,6.24047485 229.272674,6.24047485 L230.927711,6.24047485 C231.142744,6.24047485 231.332546,6.38178297 231.394476,6.58764809 L232.379184,9.87833395 L234.702257,6.45408682 C234.793287,6.32038208 234.94424,6.24047485 235.104942,6.24047485 L236.789367,6.24047485 Z M242.365746,3.00043038 C243.537245,3.00043038 244.419024,3.30987364 244.916037,3.89476012 C245.36904,4.42742716 245.519993,5.18790871 245.362875,6.1559769 C245.014809,8.36841728 243.684615,9.48496659 241.378601,9.48496659 L240.271038,9.48496659 C240.032064,9.48496659 239.827783,9.65912705 239.790941,9.89626645 L239.389116,12.4422514 C239.363025,12.6082346 239.220243,12.7300322 239.053521,12.7300322 L237.257135,12.7300322 C237.078515,12.7300322 236.941323,12.5703612 236.969421,12.3930446 L238.385055,3.41129987 C238.422471,3.17459084 238.626179,3.00043038 238.865152,3.00043038 L242.365746,3.00043038 Z M242.769578,6.28093058 C242.839678,5.83936065 242.783913,5.51973173 242.600132,5.30468517 C242.292061,4.94417014 241.695273,4.94417014 241.063793,4.94417014 L240.821665,4.94417014 C240.67788,4.94417014 240.556028,5.04860904 240.534095,5.19049099 L240.163091,7.53778378 L240.690639,7.53778378 C241.619008,7.53778378 242.578628,7.53778378 242.769578,6.28093058 Z M252.827817,6.24047485 C253.007441,6.24047485 253.144632,6.40071969 253.116965,6.57746243 L252.210672,12.3183019 C252.173257,12.5554413 251.969549,12.7296018 251.730575,12.7296018 L250.221331,12.7296018 C250.041563,12.7296018 249.904515,12.5697873 249.932613,12.39161 L250.007301,11.9255084 C250.007301,11.9255084 249.179711,12.8858297 247.687382,12.8858297 C246.817788,12.8858297 246.08811,12.6347747 245.576188,12.0325296 C245.019396,11.3774911 244.792751,10.4381149 244.952449,9.4558442 C245.26052,7.48656856 246.841872,6.08266883 248.694023,6.08266883 C249.501687,6.08266883 250.310354,6.25883773 250.673187,6.78590984 L250.790881,6.95590995 L250.865139,6.4867957 C250.886643,6.34491374 251.008925,6.24047485 251.15271,6.24047485 L252.827817,6.24047485 Z M250.491555,9.50505099 C250.56567,9.04095783 250.464318,8.61990269 250.207999,8.31820627 C249.953113,8.01980944 249.566197,7.86142958 249.090257,7.86142958 C248.135654,7.86142958 247.363972,8.52579292 247.211872,9.47578514 C247.134174,9.94188674 247.227355,10.3603596 247.474929,10.6543092 C247.724798,10.9502672 248.114724,11.1064952 248.600412,11.1064952 C249.569781,11.1064952 250.330854,10.4632204 250.491555,9.50505099 Z M254.803827,3.24689469 C254.825904,3.10501273 254.948759,3.00043038 255.091541,3 L256.708732,3 C256.887353,3 257.024544,3.16024484 256.996303,3.33756142 L255.579666,12.3188758 C255.542824,12.5560152 255.339259,12.7300322 255.099139,12.7300322 L253.654834,12.7300322 C253.476213,12.7300322 253.339166,12.5703612 253.367263,12.3930446 L254.803827,3.24689469 Z" id="paypal"></path>
                        </g>
                    </g>
                </g>
            </g>
        </g>
    </g>
</svg>