<?xml version="1.0" encoding="UTF-8"?>
<svg width="14px" height="14px" viewBox="0 0 14 14" version="1.1" xmlns="http://www.w3.org/2000/svg" xmlns:xlink="http://www.w3.org/1999/xlink">
    <!-- Generator: Sketch 46.2 (44496) - http://www.bohemiancoding.com/sketch -->
    <title>Shape</title>
    <desc>Created with Sketch.</desc>
    <defs></defs>
    <g id="Responsive-Home" stroke="none" stroke-width="1" fill="none" fill-rule="evenodd">
        <g id="320_Home" transform="translate(-285.000000, -21.000000)" fill-rule="nonzero" fill="#FFFFFF">
            <g id="Top">
                <g id="Menu" transform="translate(16.000000, 16.000000)">
                    <g id="ic_phone" transform="translate(264.000000, 0.000000)">
                        <path d="M7.22353035,5.03158921 C7.12671627,5.0122264 7.01053937,5.0122264 6.93308811,5.05095203 C5.88749604,5.45757117 5.22916029,6.94850801 5.07425776,7.97473726 C4.59018736,11.3051416 7.22353035,14.1902012 9.64388236,16.0877572 C11.793155,17.7723222 15.9174348,20.5412049 18.3571496,17.8691363 C18.6669547,17.5399684 19.0348482,17.055898 19.0154854,16.5718276 C18.9573969,15.7585893 18.2022471,15.1777048 17.6213626,14.7323601 C17.1760178,14.4031922 16.2466027,13.4931398 15.6657182,13.5125027 C15.1429221,13.5318655 14.8137543,14.0740243 14.4845864,14.4031922 L13.9037019,14.9840767 C13.8068878,15.0808908 12.5676676,14.2676525 12.4321279,14.1708384 C11.9286947,13.8416705 11.4446243,13.473777 11.0186423,13.0671579 C10.5926604,12.6605388 10.205404,12.215194 9.87623616,11.7504864 C9.77942208,11.6149467 8.98554662,10.4338149 9.06299788,10.3370008 C9.06299788,10.3370008 9.74069644,9.60121381 9.93432461,9.31077157 C10.3409437,8.69116146 10.6507488,8.20709105 10.1860412,7.47130404 C10.0117759,7.20022462 9.79878489,6.98723364 9.5664311,6.75487984 C9.15981196,6.36762352 8.75319282,5.96100438 8.28848524,5.63183651 C8.03676863,5.43820835 7.61078667,5.08967766 7.22353035,5.03158921 Z" id="Shape"></path>
                    </g>
                </g>
            </g>
        </g>
    </g>
</svg>