<?xml version="1.0" encoding="UTF-8"?>
<svg width="16px" height="15px" viewBox="0 0 16 15" version="1.1" xmlns="http://www.w3.org/2000/svg" xmlns:xlink="http://www.w3.org/1999/xlink">
    <!-- Generator: Sketch 46.2 (44496) - http://www.bohemiancoding.com/sketch -->
    <title>pointer</title>
    <desc>Created with Sketch.</desc>
    <defs></defs>
    <g id="Index" stroke="none" stroke-width="1" fill="none" fill-rule="evenodd">
        <g id="1440_Home" transform="translate(-112.000000, -1527.000000)" fill-rule="nonzero" fill="#FC5245">
            <g id="Check-out-where-do-we-stand" transform="translate(112.000000, 1504.000000)">
                <g id="Line" transform="translate(0.000000, 23.000000)">
                    <g id="pointer">
                        <path d="M15.4499643,8.33013714 C15.5501714,8.61670034 15.6000473,8.86403127 15.5992067,9.07257458 C15.6193462,9.56737325 15.475988,10.0133283 15.1693775,10.4104738 C15.2825439,10.7749885 15.2825439,11.155887 15.1693775,11.5527931 C15.0695206,11.9239776 14.8893861,12.229832 14.629429,12.4706984 C14.6892171,13.1998646 14.5259646,13.789067 14.1394265,14.2383398 C13.7126095,14.7330016 13.0562373,14.9870024 12.1693643,15 L11.8094454,15 L11.0493987,15 L10.8793513,15 C10.4394699,15 9.95955465,14.9494119 9.43946552,14.8485436 C8.91986673,14.7475042 8.51459018,14.6530321 8.22465161,14.565264 C7.93464298,14.4774959 7.53304408,14.3487169 7.01978486,14.1797137 C6.19973994,13.8995125 5.67306606,13.7564361 5.43976323,13.7499031 C5.26642353,13.7433701 5.11641062,13.6799212 4.98979453,13.5593512 C4.8631084,13.4389181 4.79981787,13.2941315 4.79981787,13.1248546 L4.79981787,6.86513492 C4.79981787,6.70242531 4.85981603,6.56078551 4.97984738,6.44035235 C5.09987873,6.31985078 5.24323685,6.25311829 5.40978166,6.24012067 C5.56974173,6.22708885 5.82304395,6.0350662 6.16975837,5.66388168 C6.51640274,5.29276557 6.8530299,4.89890364 7.17977995,4.48229588 C7.63321614,3.91594192 7.96984331,3.52529518 8.18980154,3.3104925 C8.30983289,3.19324033 8.41305214,3.03709793 8.49980955,2.84168905 C8.58639184,2.64641699 8.64488391,2.48856438 8.67483046,2.36813122 C8.70502218,2.24769805 8.7498194,2.0508868 8.81002771,1.77732121 C8.85650615,1.52349148 8.89822116,1.3248674 8.93489254,1.18165421 C8.97159894,1.03837261 9.03664073,0.869095776 9.13001791,0.673755307 C9.22325498,0.478517451 9.33677164,0.315773632 9.47007754,0.185592258 C9.59686875,0.0618754874 9.74674156,0 9.92004623,0 C10.226902,0 10.5017447,0.0341700453 10.7453099,0.10254434 C10.9886299,0.170850226 11.1885538,0.25547154 11.3453265,0.356374076 C11.5021343,0.457345021 11.6354052,0.588997177 11.7454544,0.751946222 C11.8552584,0.914587428 11.935326,1.06118684 11.985412,1.19136822 C12.0352879,1.32151539 12.0753567,1.48429341 12.1055484,1.67953126 C12.1352848,1.87487173 12.152272,2.02140274 12.1553893,2.11905587 C12.1585416,2.2166406 12.1604679,2.34370938 12.1604679,2.49988599 C12.1604679,2.74728532 12.1289453,2.99478727 12.0655146,3.24204979 C12.0019789,3.48944913 11.9389686,3.68468699 11.8756781,3.8280712 C11.8122825,3.97118178 11.7204464,4.15359304 11.6004851,4.37482613 C11.5805558,4.41381897 11.5471067,4.47244506 11.5005932,4.55060177 C11.4541148,4.62872427 11.4170581,4.70041638 11.3906842,4.76550707 C11.364065,4.83059775 11.3373758,4.90872026 11.3107567,4.99984038 L14.0806192,4.99984038 C14.6006033,4.99984038 15.050537,5.18536423 15.4305253,5.55661715 C15.8097431,5.92790428 16,6.36729207 16,6.87508836 C16,7.43504613 15.8166081,7.92002818 15.4499643,8.33013714 Z M3.52003222,6.25007411 C3.69337192,6.25007411 3.84331478,6.31191539 3.97000092,6.43566637 C4.096617,6.55934893 4.15997758,6.70581153 4.15997758,6.87508836 L4.15997758,13.1252993 C4.15997758,13.2943709 4.09665203,13.4409019 3.97000092,13.5647213 C3.84327976,13.6882328 3.69333689,13.7501425 3.52003222,13.7501425 L0.640155512,13.7501425 C0.466815816,13.7501425 0.3168029,13.6882328 0.190046715,13.5647213 C0.06336058,13.4409019 -1.77635684e-15,13.2943367 -1.77635684e-15,13.1252993 L-1.77635684e-15,6.87508836 C-1.77635684e-15,6.70581153 0.06336058,6.55931473 0.19001169,6.43566637 C0.316662799,6.3119496 0.466675715,6.25007411 0.640120487,6.25007411 L3.52003222,6.25007411 Z" id="Combined-Shape"></path>
                    </g>
                </g>
            </g>
        </g>
    </g>
</svg>