<?xml version="1.0" encoding="UTF-8"?>
<svg width="13px" height="16px" viewBox="0 0 13 16" version="1.1" xmlns="http://www.w3.org/2000/svg" xmlns:xlink="http://www.w3.org/1999/xlink">
    <!-- Generator: Sketch 46.2 (44496) - http://www.bohemiancoding.com/sketch -->
    <title>Shape</title>
    <desc>Created with Sketch.</desc>
    <defs></defs>
    <g id="Index" stroke="none" stroke-width="1" fill="none" fill-rule="evenodd">
        <g id="1440_Get_Free_Quote" transform="translate(-218.000000, -167.000000)" fill-rule="nonzero" fill="#FFFAEA">
            <g id="Overlay_main" transform="translate(-12.000000, -130.000000)">
                <g id="Line" transform="translate(228.000000, 297.000000)">
                    <g id="pointer">
                        <path d="M8.50003628,0 C4.91017648,0 2,2.64650357 2,5.91113965 C2,9.99394134 6.4923675,14.4303537 8.00769669,15.8106759 C8.28395975,16.0623069 8.71640304,16.0633146 8.99339168,15.812448 C10.509773,14.4391445 15,10.0252475 15,5.91113965 C15.0000363,2.64650357 12.0898961,0 8.50003628,0 Z M8.50003628,8.58446719 C7.01681383,8.58446719 5.81446185,7.43287834 5.81446185,6.01235494 C5.81446185,4.5917968 7.01685011,3.4402427 8.50003628,3.4402427 C9.98322245,3.4402427 11.1856107,4.59183155 11.1856107,6.01235494 C11.1856107,7.43291309 9.98322245,8.58446719 8.50003628,8.58446719 Z" id="Shape"></path>
                    </g>
                </g>
            </g>
        </g>
    </g>
</svg>