<?xml version="1.0" encoding="UTF-8"?>
<svg width="16px" height="16px" viewBox="0 0 16 16" version="1.1" xmlns="http://www.w3.org/2000/svg" xmlns:xlink="http://www.w3.org/1999/xlink">
    <!-- Generator: Sketch 46.2 (44496) - http://www.bohemiancoding.com/sketch -->
    <title>cancel</title>
    <desc>Created with Sketch.</desc>
    <defs></defs>
    <g id="Respoinsive-Modals" stroke="none" stroke-width="1" fill="none" fill-rule="evenodd">
        <g id="320_Thanks" transform="translate(-280.000000, -40.000000)" fill-rule="nonzero" fill="#9198AD">
            <g id="Overlay_main" transform="translate(16.000000, 32.000000)">
                <g id="cancel" transform="translate(264.000000, 8.000000)">
                    <path d="M13.6336134,2.29012332 C12.1243697,0.812730547 10.1210084,0 7.98655462,0 C5.85210084,0 3.8487395,0.812730547 2.3394958,2.29012332 C0.830252101,3.7675161 0,5.72859871 0,7.8180072 C0,9.90741569 0.830252101,11.8684983 2.3394958,13.3458911 C3.8487395,14.8232839 5.85210084,15.6360144 7.98655462,15.6360144 C10.1210084,15.6360144 12.1243697,14.8232839 13.6336134,13.3458911 C15.1428571,11.8684983 15.9731092,9.90741569 15.9731092,7.8180072 C15.9731092,5.72859871 15.1428571,3.7675161 13.6336134,2.29012332 Z M12.9915966,12.7174233 C11.6537815,14.0270053 9.87563025,14.7476045 7.98655462,14.7476045 C6.09747899,14.7476045 4.31932773,14.0270053 2.98151261,12.7174233 C0.221848739,10.0159991 0.221848739,5.62001528 2.98151261,2.91859107 C4.31932773,1.60900906 6.09747899,0.888409909 7.98655462,0.888409909 C9.87563025,0.888409909 11.6537815,1.60900906 12.9915966,2.91859107 C15.7512605,5.62001528 15.7512605,10.0159991 12.9915966,12.7174233 Z" id="Shape"></path>
                    <path d="M11.5058824,4.372951 C11.3277311,4.19855942 11.0420168,4.19855942 10.8638655,4.372951 L7.98655462,7.18953945 L5.1092437,4.372951 C4.93109244,4.19855942 4.64537815,4.19855942 4.46722689,4.372951 C4.28907563,4.54734257 4.28907563,4.82702717 4.46722689,5.00141875 L7.34453782,7.8180072 L4.46722689,10.6345957 C4.28907563,10.8089872 4.28907563,11.0886718 4.46722689,11.2630634 C4.55462185,11.348614 4.67226891,11.3946797 4.78655462,11.3946797 C4.90084034,11.3946797 5.01848739,11.3519044 5.10588235,11.2630634 L7.98319328,8.44647495 L10.8605042,11.2630634 C10.9478992,11.348614 11.0655462,11.3946797 11.1798319,11.3946797 C11.297479,11.3946797 11.4117647,11.3519044 11.4991597,11.2630634 C11.6773109,11.0886718 11.6773109,10.8089872 11.4991597,10.6345957 L8.62857143,7.8180072 L11.5058824,5.00141875 C11.6840336,4.82702717 11.6840336,4.54734257 11.5058824,4.372951 Z" id="Shape"></path>
                </g>
            </g>
        </g>
    </g>
</svg>