<?xml version="1.0" encoding="UTF-8"?>
<svg width="24px" height="24px" viewBox="0 0 24 24" version="1.1" xmlns="http://www.w3.org/2000/svg" xmlns:xlink="http://www.w3.org/1999/xlink">
    <!-- Generator: Sketch 46.2 (44496) - http://www.bohemiancoding.com/sketch -->
    <title>cancel</title>
    <desc>Created with Sketch.</desc>
    <defs></defs>
    <g id="Index" stroke="none" stroke-width="1" fill="none" fill-rule="evenodd">
        <g id="1440_Thank_You" transform="translate(-1248.000000, -168.000000)" fill-rule="nonzero" fill="#9198AD">
            <g id="Overlay_thanks">
                <g id="popup_bg" transform="translate(152.000000, 152.000000)">
                    <g id="cancel" transform="translate(1096.000000, 16.000000)">
                        <path d="M20.4504202,3.5092437 C18.1865546,1.24537815 15.1815126,0 11.9798319,0 C8.77815126,0 5.77310924,1.24537815 3.5092437,3.5092437 C1.24537815,5.77310924 0,8.77815126 0,11.9798319 C0,15.1815126 1.24537815,18.1865546 3.5092437,20.4504202 C5.77310924,22.7142857 8.77815126,23.9596639 11.9798319,23.9596639 C15.1815126,23.9596639 18.1865546,22.7142857 20.4504202,20.4504202 C22.7142857,18.1865546 23.9596639,15.1815126 23.9596639,11.9798319 C23.9596639,8.77815126 22.7142857,5.77310924 20.4504202,3.5092437 Z M19.487395,19.487395 C17.4806723,21.4941176 14.8134454,22.5983193 11.9798319,22.5983193 C9.14621849,22.5983193 6.4789916,21.4941176 4.47226891,19.487395 C0.332773109,15.3478992 0.332773109,8.61176471 4.47226891,4.47226891 C6.4789916,2.46554622 9.14621849,1.36134454 11.9798319,1.36134454 C14.8134454,1.36134454 17.4806723,2.46554622 19.487395,4.47226891 C23.6268908,8.61176471 23.6268908,15.3478992 19.487395,19.487395 Z" id="Shape"></path>
                        <path d="M17.2588235,6.70084034 C16.9915966,6.43361345 16.5630252,6.43361345 16.2957983,6.70084034 L11.9798319,11.0168067 L7.66386555,6.70084034 C7.39663866,6.43361345 6.96806723,6.43361345 6.70084034,6.70084034 C6.43361345,6.96806723 6.43361345,7.39663866 6.70084034,7.66386555 L11.0168067,11.9798319 L6.70084034,16.2957983 C6.43361345,16.5630252 6.43361345,16.9915966 6.70084034,17.2588235 C6.83193277,17.389916 7.00840336,17.4605042 7.17983193,17.4605042 C7.3512605,17.4605042 7.52773109,17.394958 7.65882353,17.2588235 L11.9747899,12.9428571 L16.2907563,17.2588235 C16.4218487,17.389916 16.5983193,17.4605042 16.7697479,17.4605042 C16.9462185,17.4605042 17.1176471,17.394958 17.2487395,17.2588235 C17.5159664,16.9915966 17.5159664,16.5630252 17.2487395,16.2957983 L12.9428571,11.9798319 L17.2588235,7.66386555 C17.5260504,7.39663866 17.5260504,6.96806723 17.2588235,6.70084034 Z" id="Shape"></path>
                    </g>
                </g>
            </g>
        </g>
    </g>
</svg>