<?xml version="1.0" encoding="UTF-8"?>
<svg width="16px" height="11px" viewBox="0 0 16 11" version="1.1" xmlns="http://www.w3.org/2000/svg" xmlns:xlink="http://www.w3.org/1999/xlink">
    <!-- Generator: Sketch 46.2 (44496) - http://www.bohemiancoding.com/sketch -->
    <title>quote</title>
    <desc>Created with Sketch.</desc>
    <defs></defs>
    <g id="Index" stroke="none" stroke-width="1" fill="none" fill-rule="evenodd">
        <g id="1440_Home" transform="translate(-600.000000, -2596.000000)">
            <g id="Testimonials" transform="translate(-2.000000, 2185.000000)">
                <g id="Line" transform="translate(602.000000, 259.000000)">
                    <g id="quote" transform="translate(0.000000, 150.000000)">
                        <rect id="Rectangle-24" x="0" y="0" width="16" height="16"></rect>
                        <path d="M5.83425414,6.63385827 C6.8066347,7.26903205 7.29281768,8.15681844 7.29281768,9.29724409 C7.29281768,10.4376697 6.94659646,11.3398917 6.25414365,12.003937 C5.56169083,12.6679823 4.69245459,13 3.64640884,13 C2.60036309,13 1.73112685,12.6824179 1.03867403,12.0472441 C0.346221215,11.4120703 0,10.5892439 0,9.57874016 C0,8.56823642 0.324121989,7.57218339 0.972375691,6.59055118 L4.19889503,2 L7.82320442,2 L5.83425414,6.63385827 Z M14.0110497,6.63385827 C14.9834303,7.26903205 15.4696133,8.15681844 15.4696133,9.29724409 C15.4696133,10.4376697 15.123392,11.3398917 14.4309392,12.003937 C13.7384864,12.6679823 12.8692502,13 11.8232044,13 C10.7771587,13 9.90792243,12.6824179 9.21546961,12.0472441 C8.5230168,11.4120703 8.17679558,10.5892439 8.17679558,9.57874016 C8.17679558,8.56823642 8.50091757,7.57218339 9.14917127,6.59055118 L12.3756906,2 L16,2 L14.0110497,6.63385827 Z" id="“" fill="#FFFFFF"></path>
                    </g>
                </g>
            </g>
        </g>
    </g>
</svg>