<?xml version="1.0" encoding="UTF-8"?>
<svg width="144px" height="16px" viewBox="0 0 144 16" version="1.1" xmlns="http://www.w3.org/2000/svg" xmlns:xlink="http://www.w3.org/1999/xlink">
    <!-- Generator: Sketch 46.2 (44496) - http://www.bohemiancoding.com/sketch -->
    <title>Logotype</title>
    <desc>Created with Sketch.</desc>
    <defs>
        <linearGradient x1="58.0227289%" y1="0%" x2="85.5671494%" y2="122.382689%" id="linearGradient-1">
            <stop stop-color="#FFB571" offset="0%"></stop>
            <stop stop-color="#FF5B07" offset="100%"></stop>
        </linearGradient>
    </defs>
    <g id="Index" stroke="none" stroke-width="1" fill="none" fill-rule="evenodd">
        <g id="1440_Home" transform="translate(-152.000000, -24.000000)">
            <g id="Top">
                <g id="Menu" transform="translate(152.000000, 0.000000)">
                    <g id="Logotype" transform="translate(0.000000, 24.000000)">
                        <polygon id="Fill-1" fill="#FFFFFF" points="31.9917205 2.00005 28.3828438 6.16405 26.4881589 2.00005 22.8373644 2.00005 25.9230082 8.61055 19.4795014 16.00005 23.7205973 16.00005 27.4798849 11.61905 29.4588986 16.00005 33.1215288 16.00005 29.9308438 9.18705 36.2461315 2.00005"></polygon>
                        <path d="M43.2435452,5.95475 C43.2435452,6.25175 43.1888055,6.51425 43.0763671,6.75725 C42.9673808,6.99175 42.8071068,7.18775 42.5866685,7.35425 C42.3509425,7.53275 42.041737,7.67575 41.6674356,7.78025 C41.2734082,7.88975 40.7994904,7.94525 40.258011,7.94525 C40.087874,7.94525 39.9256274,7.94025 39.773737,7.92975 L40.3556548,5.04775 L41.3335726,5.04775 C41.6842027,5.04775 41.9796,5.06225 42.2123671,5.09175 C42.4145589,5.11775 42.5768055,5.15675 42.693189,5.20775 C42.8810795,5.28525 43.0166959,5.38525 43.1172986,5.51775 C43.2021205,5.62925 43.2435452,5.77225 43.2435452,5.95475 M46.0066685,3.73725 C45.6022849,3.11575 44.9592164,2.65175 44.0952164,2.35675 C43.3929699,2.11625 42.4402027,2.00025 41.1826685,2.00025 L37.5954904,2.00025 L34.7672712,16.00025 L38.1384493,16.00025 L39.165189,10.94775 C39.4877096,10.97775 39.8191068,10.99275 40.1544493,10.99275 C41.158011,10.99275 42.0624493,10.87125 42.8431068,10.63175 C43.6405315,10.38725 44.3225589,10.03675 44.8729151,9.59025 C45.4331342,9.13525 45.8671068,8.58225 46.1615178,7.94625 C46.4544493,7.31325 46.6028877,6.61075 46.6028877,5.85825 C46.6028877,5.05925 46.4021753,4.34525 46.0066685,3.73725" id="Fill-2" fill="#FFFFFF"></path>
                        <polygon id="Fill-5" fill="#FFFFFF" points="48.9427397 2.00015 46.109589 16.00015 55.4513425 16.00015 56.0623562 12.95065 50.1036164 12.95065 50.6307945 10.37465 55.4513425 10.37465 56.0623562 7.32515 51.2457534 7.32515 51.7083288 5.04965 57.3193973 5.04965 57.9452055 2.00015"></polygon>
                        <path d="M65.985337,5.9938 C65.985337,6.4573 65.8640219,6.8168 65.6144877,7.0938 C65.3417753,7.3963 64.9546521,7.6208 64.4639671,7.7603 C64.2312,7.8298 63.9678575,7.8773 63.6764055,7.9028 C63.3637479,7.9308 63.0042411,7.9443 62.6077479,7.9443 L62.369063,7.9443 L62.9445699,5.0478 L64.1744877,5.0478 C64.502926,5.0478 64.7815562,5.0603 65.0015014,5.0848 C65.1977753,5.1063 65.3545973,5.1368 65.4660493,5.1753 C65.6554192,5.2428 65.7846247,5.3358 65.8561315,5.4593 C65.942926,5.6068 65.985337,5.7818 65.985337,5.9938 M68.2987068,8.8613 C68.6419397,8.4413 68.8959123,7.9628 69.0556932,7.4403 C69.2095562,6.9323 69.287474,6.3838 69.287474,5.8103 C69.287474,4.9813 69.061611,4.2463 68.6158027,3.6263 C68.1690082,3.0043 67.4746521,2.5488 66.5519671,2.2723 C66.2348712,2.1733 65.8600767,2.1018 65.4428712,2.0603 C65.0414466,2.0198 60.2317479,2.0003 60.2317479,2.0003 L57.4518575,16.0003 L60.7668164,16.0003 L61.7585425,10.9928 L62.5248986,10.9928 L65.0093918,16.0003 L68.6878027,16.0003 L65.8176658,10.4578 C66.2600219,10.3153 66.6584877,10.1418 67.0076384,9.9398 C67.5259397,9.6383 67.9604055,9.2758 68.2987068,8.8613" id="Fill-8" fill="#FFFFFF"></path>
                        <polygon id="Fill-11" fill="#FFFFFF" points="70.8657534 2.00015 70.2739726 5.04765 74.2093151 5.04765 72.0054247 16.00015 75.357863 16.00015 77.5627397 5.04765 81.5035068 5.04765 82.109589 2.00015"></polygon>
                        <polygon id="Fill-14" fill="#FFFFFF" points="87.9478521 2.00015 85.0683452 16.00015 88.5016603 16.00015 89.6635233 10.37415 94.4663178 10.37415 95.0862082 7.32565 90.2873589 7.32565 90.7578247 5.04865 96.2692767 5.04865 96.9039616 2.00015"></polygon>
                        <path d="M102.197688,10.05825 L100.079112,10.05825 L100.601359,9.07825 C100.964318,8.40325 101.316427,7.71525 101.655222,7.01875 C101.761742,7.66675 101.879112,8.33725 102.007825,9.02575 L102.197688,10.05825 Z M103.736811,2.00025 L100.840537,2.00025 L93.2055781,16.00025 L96.9836055,16.00025 L98.732811,12.70425 L102.471879,12.70425 L103.076482,16.00025 L106.520647,16.00025 L103.736811,2.00025 Z" id="Fill-17" fill="#FFFFFF"></path>
                        <path d="M116.287151,5.9938 C116.287151,6.4573 116.165836,6.8168 115.915808,7.0943 C115.643589,7.3963 115.255973,7.6208 114.765288,7.7603 C114.532521,7.8303 114.269671,7.8773 113.977726,7.9033 C113.667534,7.9308 113.308027,7.9443 112.909068,7.9443 L112.66989,7.9443 L113.24589,5.0478 L114.475808,5.0478 C114.807205,5.0478 115.085342,5.0603 115.302329,5.0838 C115.499096,5.1063 115.656411,5.1363 115.76737,5.1748 C115.95674,5.2423 116.085945,5.3358 116.157945,5.4588 C116.24474,5.6068 116.287151,5.7818 116.287151,5.9938 M118.600027,8.8608 C118.94326,8.4408 119.197726,7.9628 119.357014,7.4398 C119.510877,6.9323 119.588795,6.3843 119.588795,5.8103 C119.588795,4.9813 119.362932,4.2463 118.917123,3.6263 C118.469836,3.0043 117.775973,2.5493 116.853288,2.2723 C116.535699,2.1738 116.161397,2.1023 115.744685,2.0603 C115.34474,2.0203 114.861452,2.0003 114.30863,2.0003 L110.533068,2.0003 L107.753178,16.0003 L111.067644,16.0003 L112.059863,10.9928 L112.826219,10.9928 L115.310712,16.0003 L118.989123,16.0003 L116.118986,10.4573 C116.561342,10.3153 116.959808,10.1418 117.308959,9.9398 C117.82726,9.6388 118.261726,9.2758 118.600027,8.8608" id="Fill-20" fill="#FFFFFF"></path>
                        <polygon id="Fill-23" fill="#FFFFFF" points="123.408937 2.00015 120.575293 16.00015 129.917047 16.00015 130.52806 12.95165 124.568334 12.95165 125.096005 10.37415 129.917047 10.37415 130.52806 7.32565 125.710471 7.32565 126.17354 5.04815 131.785595 5.04815 132.41091 2.00015"></polygon>
                        <path d="M141.113244,2.25015 C140.360203,2.08415 139.589408,2.00015 138.822559,2.00015 C138.080367,2.00015 137.393901,2.10315 136.784367,2.30715 C136.162997,2.51465 135.622011,2.81615 135.176696,3.20265 C134.725956,3.59415 134.37286,4.07265 134.128258,4.62365 C133.885134,5.17165 133.761847,5.78165 133.761847,6.43765 C133.761847,6.96415 133.846668,7.43915 134.014833,7.84965 C134.18349,8.26215 134.420203,8.62065 134.718066,8.91665 C135.006559,9.20115 135.348805,9.44315 135.735929,9.63565 C136.096915,9.81515 136.489956,9.97265 136.90371,10.10415 C137.250395,10.20715 137.579819,10.30315 137.90086,10.39365 C138.188367,10.47465 138.443819,10.56915 138.658833,10.67265 C138.833408,10.75715 138.974449,10.86165 139.077518,10.98315 C139.145573,11.06415 139.179107,11.18065 139.179107,11.33865 C139.179107,11.59965 139.126833,11.82365 139.019326,12.02365 C138.910833,12.22465 138.760915,12.38865 138.562175,12.52465 C138.344696,12.67265 138.072477,12.79015 137.753408,12.87315 C137.418559,12.96065 137.034395,13.00465 136.611271,13.00465 C136.004696,13.00465 135.423271,12.93065 134.883271,12.78515 C134.329956,12.63615 133.827929,12.45265 133.390504,12.23915 L132.769627,11.93565 L132.164532,14.85465 L132.478668,15.05165 C132.656696,15.16265 132.881573,15.27315 133.167107,15.38765 C133.441299,15.49865 133.760367,15.60015 134.114449,15.69015 C134.4636,15.77865 134.85171,15.85265 135.267929,15.91065 C135.693518,15.96965 136.13834,16.00015 136.592532,16.00015 C137.46886,16.00015 138.279107,15.89415 139.000093,15.68515 C139.739326,15.47065 140.380915,15.15265 140.906121,14.73915 C141.443162,14.31665 141.862833,13.79565 142.153792,13.19065 C142.444751,12.58515 142.592203,11.89665 142.592203,11.14315 C142.592203,10.53115 142.469408,10.00265 142.226778,9.56965 C141.990559,9.14765 141.674942,8.79515 141.287819,8.52265 C140.92634,8.26815 140.517025,8.05915 140.071216,7.90115 C139.664367,7.75715 139.251107,7.61965 138.842285,7.49315 C138.578942,7.41115 138.322997,7.32315 138.081353,7.23065 C137.874723,7.15115 137.694723,7.05665 137.548258,6.95115 C137.42349,6.86165 137.327326,6.75615 137.253847,6.62615 C137.188751,6.51265 137.156696,6.36115 137.156696,6.17665 C137.156696,5.82365 137.285901,5.56265 137.565025,5.35415 C137.883107,5.11565 138.356038,4.99515 138.97149,4.99515 C139.479436,4.99515 139.994285,5.05315 140.50223,5.16815 C141.020038,5.28515 142.886614,5.98515 142.886614,5.98515 L143.506997,3.04665 C143.506997,3.04665 141.861353,2.41515 141.113244,2.25015" id="Fill-26" fill="#FFFFFF"></path>
                        <path d="M9.66595068,10.09735 C8.40743014,10.09735 6.45208767,10.10735 6.42545753,10.10685 C4.05833425,10.08585 2.71006027,8.81285 2.71006027,8.81285 C2.8397589,11.06985 4.80693699,12.54735 7.13164932,12.56785 C7.13608767,12.56835 8.41827945,12.56835 9.16293699,12.56835 L9.66595068,10.09735 Z" id="Fill-32" fill="#FFFFFF"></path>
                        <path d="M10.4938027,6.0578 C9.1001589,6.0583 6.51999452,6.0583 6.19993973,6.0583 C3.35347397,6.0578 1.72854247,4.5098 1.72854247,4.5098 C1.93467945,7.4168 3.89002192,9.0173 7.05456986,9.0173 L9.8901863,9.0173 L10.4938027,6.0578 Z" id="Fill-34" fill="#FFFFFF"></path>
                        <path d="M5.71931507,2.00015 C2.01624658,2.00015 0.49290411,0.00015 0.49290411,0.00015 C0.730109589,3.65115 2.80923288,5.00465 6.87131507,5.00465 L11.6450137,5.00465 L9.43520548,16.00015 L18.0850685,16.00015 L18.6290137,12.94865 L13.5396986,12.94865 L14.1566301,10.36565 L18.6852329,10.36565 L19.3430959,7.38615 L14.8144932,7.38615 L15.1784384,5.07465 L20.0926849,5.07465 L20.7120822,2.00015 L5.71931507,2.00015 Z" id="Fill-29" fill="url(#linearGradient-1)"></path>
                    </g>
                </g>
            </g>
        </g>
    </g>
</svg>