<?xml version="1.0" encoding="UTF-8"?>
<svg width="35px" height="12px" viewBox="0 0 35 12" version="1.1" xmlns="http://www.w3.org/2000/svg" xmlns:xlink="http://www.w3.org/1999/xlink">
    <!-- Generator: Sketch 46.2 (44496) - http://www.bohemiancoding.com/sketch -->
    <title>visa</title>
    <desc>Created with Sketch.</desc>
    <defs>
        <polygon id="path-1" points="3.39322697 -0.000138461538 6.78631579 -0.000138461538 6.78631579 5.86278462 3.39322697 5.86278462 0.000138157895 5.86278462 0.000138157895 -0.000138461538"></polygon>
        <polygon id="path-3" points="0.150361842 0.295384615 8.58628289 0.295384615 8.58628289 11.5384615 0.150361842 11.5384615 0.150361842 0.295384615"></polygon>
    </defs>
    <g id="Symbols" stroke="none" stroke-width="1" fill="none" fill-rule="evenodd">
        <g id="Nav-/-Footer-/-Big-/-1440" transform="translate(-919.000000, -314.000000)">
            <g id="Nav-/-Footer-/-Big">
                <g id="Links" transform="translate(152.000000, 311.000000)">
                    <g id="We-Accept" transform="translate(677.000000, 0.000000)">
                        <g id="payments" transform="translate(90.000000, 0.000000)">
                            <g id="visa" transform="translate(0.000000, 3.000000)">
                                <polygon id="Fill-1" fill="#FFFFFF" points="13.9325329 0.655569231 12.1691776 11.5178769 14.9908224 11.5178769 16.7541776 0.655569231"></polygon>
                                <g id="Group-10" transform="translate(0.000000, 0.166338)">
                                    <g id="Group-4">
                                        <path d="M9.79516447,0.489230769 L7.10476974,7.96015385 L6.78654605,6.35169231 L6.78654605,6.35215385 L5.83740132,1.46723077 C5.83740132,1.46723077 5.72226974,0.489230769 4.49911184,0.489230769 L0.0513486842,0.489230769 L-0.000230263158,0.673384615 C-0.000230263158,0.673384615 1.36016447,0.956307692 2.95128289,1.91492308 L5.40220395,11.3515385 L8.34266447,11.3515385 L12.8327961,0.489230769 L9.79516447,0.489230769 Z" id="Fill-2" fill="#FFFFFF"></path>
                                        <g id="Page-1" transform="translate(0.000000, 0.295200)">
                                            <mask id="mask-2" fill="white">
                                                <use xlink:href="#path-1"></use>
                                            </mask>
                                            <g id="Clip-2"></g>
                                            <path d="M6.78645395,5.86278462 L5.83730921,0.978323077 C5.83730921,0.978323077 5.72217763,-0.000138461538 4.49901974,-0.000138461538 L0.0512565789,-0.000138461538 L0.000138157895,0.184015385 C0.000138157895,0.184015385 2.13698026,0.628015385 4.18678289,2.29093846 C6.14678289,3.88093846 6.78645395,5.86278462 6.78645395,5.86278462" id="Fill-1" fill="#F9A533" mask="url(#mask-2)"></path>
                                        </g>
                                    </g>
                                    <path d="M28.8854539,7.50946154 L30.3678882,3.44376923 L31.2023618,7.50946154 L28.8854539,7.50946154 Z M31.9903224,11.3513077 L34.5807829,11.3513077 L32.3223618,0.489461538 L30.0538092,0.489461538 C29.0061118,0.489461538 28.7505197,1.29853846 28.7505197,1.29853846 L24.5426908,11.3513077 L27.4840724,11.3513077 L28.0712434,9.73823077 L31.6592039,9.73823077 L31.9903224,11.3513077 Z" id="Fill-5" fill="#FFFFFF"></path>
                                    <g id="Group-9" transform="translate(16.578947, 0.000000)">
                                        <mask id="mask-4" fill="white">
                                            <use xlink:href="#path-3"></use>
                                        </mask>
                                        <g id="Clip-8"></g>
                                        <path d="M8.18424342,3.10116923 L8.58628289,0.768553846 C8.58628289,0.768553846 7.34424342,0.295015385 6.04878289,0.295015385 C4.64832237,0.295015385 1.32332237,0.908861538 1.32332237,3.89086154 C1.32332237,6.69747692 5.22674342,6.73255385 5.22674342,8.20578462 C5.22674342,9.67901538 1.72536184,9.41593846 0.570361842,8.4864 L0.150361842,10.9247077 C0.150361842,10.9247077 1.41036184,11.5385538 3.33536184,11.5385538 C5.26082237,11.5385538 8.16628289,10.5388615 8.16628289,7.81993846 C8.16628289,4.99624615 4.22832237,4.73224615 4.22832237,3.50501538 C4.22832237,2.2764 6.97720395,2.43424615 8.18424342,3.10116923" id="Fill-7" fill="#FFFFFF" mask="url(#mask-4)"></path>
                                    </g>
                                </g>
                            </g>
                        </g>
                    </g>
                </g>
            </g>
        </g>
    </g>
</svg>