<?xml version="1.0" encoding="UTF-8"?>
<svg width="14px" height="14px" viewBox="0 0 14 14" version="1.1" xmlns="http://www.w3.org/2000/svg" xmlns:xlink="http://www.w3.org/1999/xlink">
    <!-- Generator: Sketch 46.2 (44496) - http://www.bohemiancoding.com/sketch -->
    <title>Shape</title>
    <desc>Created with Sketch.</desc>
    <defs></defs>
    <g id="Payment-Form-Responsive" stroke="none" stroke-width="1" fill="none" fill-rule="evenodd">
        <g id="Styles" transform="translate(-282.000000, -2080.000000)" fill-rule="nonzero" fill="#FF2413">
            <g id="Offers" transform="translate(0.000000, 356.000000)">
                <g id="Credit-Card" transform="translate(15.000000, 1573.000000)">
                    <g id="Front">
                        <g id="Group-2" transform="translate(0.000000, 142.000000)">
                            <g id="exclamation-mark" transform="translate(267.000000, 9.000000)">
                                <path d="M6.97692683,0 C3.12390244,0 0,3.12390244 0,6.97692683 C0,10.8303902 3.12390244,13.9538537 6.97692683,13.9538537 C10.8303902,13.9538537 13.9538537,10.8308293 13.9538537,6.97692683 C13.9538537,3.12390244 10.8303415,0 6.97692683,0 Z M6.97692683,12.6456585 C3.84604878,12.6456585 1.30819512,10.1078049 1.30819512,6.97692683 C1.30819512,3.84604878 3.84604878,1.30819512 6.97692683,1.30819512 C10.1078049,1.30819512 12.6456585,3.84604878 12.6456585,6.97692683 C12.6456585,10.1078049 10.1078049,12.6456585 6.97692683,12.6456585 Z M6.97736585,3.05980488 C6.47765854,3.05980488 6.09956098,3.32058537 6.09956098,3.74180488 L6.09956098,7.60526829 C6.09956098,8.02692683 6.47760976,8.28682927 6.97736585,8.28682927 C7.46487805,8.28682927 7.85517073,8.01604878 7.85517073,7.60526829 L7.85517073,3.74180488 C7.85512195,3.33058537 7.46487805,3.05980488 6.97736585,3.05980488 Z M6.97736585,9.15721951 C6.49726829,9.15721951 6.10653659,9.54795122 6.10653659,10.028439 C6.10653659,10.5080976 6.49726829,10.8988293 6.97736585,10.8988293 C7.45746341,10.8988293 7.8477561,10.5080976 7.8477561,10.028439 C7.84770732,9.54790244 7.45746341,9.15721951 6.97736585,9.15721951 Z" id="Shape"></path>
                            </g>
                        </g>
                    </g>
                </g>
            </g>
        </g>
    </g>
</svg>