<?xml version="1.0" encoding="UTF-8"?>
<svg width="24px" height="24px" viewBox="0 0 24 24" version="1.1" xmlns="http://www.w3.org/2000/svg" xmlns:xlink="http://www.w3.org/1999/xlink">
    <!-- Generator: Sketch 46.1 (44463) - http://www.bohemiancoding.com/sketch -->
    <title>Fill 1</title>
    <desc>Created with Sketch.</desc>
    <defs></defs>
    <g id="Index" stroke="none" stroke-width="1" fill="none" fill-rule="evenodd">
        <g id="1440_Contact-Copy" transform="translate(-154.000000, -710.000000)" fill="#FC5245">
            <g id="Contact-Us" transform="translate(150.000000, 424.000000)">
                <g id="Group-2" transform="translate(0.000000, 282.000000)">
                    <g id="Group">
                        <g id="ic_check">
                            <g id="Page-1" transform="translate(4.000000, 4.000000)">
                                <path d="M22.7680126,12 C22.1607041,12 21.6509045,12.4559059 21.5839497,13.0583059 C21.0518475,17.8452235 16.9557218,21.6 12.0235568,21.6 C6.7331835,21.6 2.40469627,17.28 2.40469627,12 C2.40469627,6.72 6.7331835,2.4 12.0235568,2.4 C12.7484605,2.4 13.405042,2.46814118 14.0447906,2.60442353 C14.4430303,2.68927059 14.8573957,2.57176471 15.1453485,2.28437647 L15.1453485,2.28437647 C15.8124448,1.61858824 15.477765,0.474588235 14.5544959,0.280847059 C13.7237375,0.106494118 12.8736472,0 12.0235568,0 C5.41059018,0 -1.88605108e-05,5.4 -1.88605108e-05,12 C-1.88605108e-05,18.6 5.41059018,24 12.0235568,24 C18.1895764,24 23.3102051,19.3053176 23.9742837,13.3205647 C24.0524605,12.6160941 23.4996118,12 22.7894664,12 L22.7680126,12 Z M6.25224047,10.56 L6.25224047,10.56 C5.78742318,11.0239059 5.78742318,11.7760941 6.25224047,12.24 L9.97954892,15.96 C10.4444134,16.4239059 11.1980322,16.4239059 11.6628495,15.96 L22.0031246,5.64 C22.467989,5.17609412 22.467989,4.42390588 22.0031246,3.96 L22.0031246,3.96 C21.5383073,3.49609412 20.7846884,3.49609412 20.319824,3.96 L11.6628495,12.6 C11.1980322,13.0639059 10.4444134,13.0639059 9.97954892,12.6 L7.93554106,10.56 C7.47072377,10.0960941 6.71710491,10.0960941 6.25224047,10.56 L6.25224047,10.56 Z" id="Fill-1"></path>
                            </g>
                        </g>
                    </g>
                </g>
            </g>
        </g>
    </g>
</svg>