<?xml version="1.0" encoding="UTF-8"?>
<svg width="49px" height="40px" viewBox="0 0 49 40" version="1.1" xmlns="http://www.w3.org/2000/svg" xmlns:xlink="http://www.w3.org/1999/xlink">
    <!-- Generator: Sketch 46.1 (44463) - http://www.bohemiancoding.com/sketch -->
    <title>001-departures</title>
    <desc>Created with Sketch.</desc>
    <defs></defs>
    <g id="Index" stroke="none" stroke-width="1" fill="none" fill-rule="evenodd">
        <g id="1440_How-to-Book" transform="translate(-940.000000, -844.000000)" fill-rule="nonzero">
            <g id="How-To-Book" transform="translate(152.000000, 424.000000)">
                <g id="How-to-Book">
                    <g id="Item#2-Copy" transform="translate(780.000000, 376.000000)">
                        <g id="ic_travel" transform="translate(0.000000, 32.000000)">
                            <g id="001-departures" transform="translate(8.000000, 12.000000)">
                                <rect id="Rectangle-path" fill="#50CFE3" x="1.59001535" y="37.9594725" width="46.3091718" height="1.97802198"></rect>
                                <path d="M47.1980059,2.7990989 C43.8347519,0.873395604 40.0132385,1.89632967 37.4000925,3.09342857 L29.6102858,6.66197802 L16.212841,0.0421318681 L8.2342741,0.37889011 L19.2974346,11.3972637 L12.2468632,14.6876044 L4.91138968,11.944978 L0,14.1947802 L4.43853277,19.6095165 C3.96960207,20.1591099 3.54466508,20.9329121 3.93044062,21.7456813 C4.43430454,22.8070879 5.9235471,23.342044 8.36635591,23.3419451 C8.86730035,23.3419451 9.40841295,23.3194945 9.98919037,23.2743956 C12.6706928,23.0663077 15.577902,22.3938791 17.3957384,21.5611319 L45.241242,8.80496703 C47.6462988,7.70310989 48.8442969,6.54616484 48.9036935,5.26776923 C48.9344991,4.60473626 48.6635905,3.63797802 47.1980059,2.7990989 Z M44.39016,7.01218681 L16.544757,19.7684505 C14.9960172,20.477967 12.4533417,21.0724615 10.0670099,21.2829231 C7.62792597,21.498033 6.32381942,21.2279341 5.88911724,20.9985824 C5.97861475,20.8782198 6.14573046,20.6891209 6.45408914,20.4224835 L7.17731759,19.7971319 L3.17982935,14.9205165 L4.99051796,14.0909341 L12.3338439,16.8367253 L22.7200851,11.9896813 L12.854218,2.16365934 L15.7758234,2.04032967 L29.5768626,8.85946154 L38.2507719,4.88601099 C41.4186212,3.43483516 44.0876403,3.30784615 46.1840363,4.50791209 L46.184137,4.50801099 C46.7123636,4.81035165 46.8969962,5.07412088 46.892164,5.17757143 C46.8919626,5.18469231 46.8314587,5.89401099 44.39016,7.01218681 Z" id="Shape" fill="#29A5D0"></path>
                            </g>
                        </g>
                    </g>
                </g>
            </g>
        </g>
    </g>
</svg>