<?xml version="1.0" encoding="UTF-8"?>
<svg width="49px" height="50px" viewBox="0 0 49 50" version="1.1" xmlns="http://www.w3.org/2000/svg" xmlns:xlink="http://www.w3.org/1999/xlink">
    <!-- Generator: Sketch 46.1 (44463) - http://www.bohemiancoding.com/sketch -->
    <title>003-business</title>
    <desc>Created with Sketch.</desc>
    <defs></defs>
    <g id="Index" stroke="none" stroke-width="1" fill="none" fill-rule="evenodd">
        <g id="1440_How-to-Book" transform="translate(-549.000000, -839.000000)" fill-rule="nonzero">
            <g id="How-To-Book" transform="translate(152.000000, 424.000000)">
                <g id="How-to-Book">
                    <g id="Item#2" transform="translate(390.000000, 376.000000)">
                        <g id="ic_offers" transform="translate(0.000000, 32.000000)">
                            <g id="003-business" transform="translate(7.000000, 7.000000)">
                                <path d="M48.1708041,20.9718563 L38.5782161,14.7302395 C38.5031953,14.6820359 38.4204648,14.6637725 38.3398099,14.6368263 L38.3398099,12.4841317 C38.3398099,11.9092814 37.8790099,11.4437126 37.3093851,11.4437126 L33.4836179,11.4437126 L25.4922656,6.4005988 C25.1583783,6.18922156 24.7337543,6.18922156 24.3995705,6.4005988 L16.4082182,11.4437126 L11.5520261,11.4437126 C10.9826978,11.4437126 10.5216012,11.908982 10.5216012,12.4841317 L10.5216012,14.6362275 C10.4409464,14.6631737 10.3579194,14.6817365 10.283195,14.7302395 L0.690607031,20.9718563 C0.396750626,21.1637725 0.218539022,21.4931138 0.218539022,21.8464072 L0.218539022,48.894012 C0.218539022,49.4688623 0.679339076,49.9344311 1.24896385,49.9344311 L47.6124473,49.9344311 C48.1817756,49.9344311 48.6428722,49.4691617 48.6428722,48.894012 L48.6428722,21.8467066 C48.6428722,21.4931138 48.4646606,21.1640719 48.1708041,20.9718563 Z M24.9460663,8.50988024 L29.5958769,11.4437126 L20.2962557,11.4437126 L24.9460663,8.50988024 Z M12.5824509,13.5242515 L36.2792568,13.5242515 L36.2792568,36.9308383 C36.2792568,36.9338323 36.2810359,36.9362275 36.2810359,36.939521 L32.7956795,39.0763473 L24.4087627,34.457485 C24.0959287,34.2868263 23.715487,34.2877246 23.4047286,34.4676647 L15.751415,38.8835329 L12.5809683,36.9398204 C12.5809683,36.9368263 12.5827474,36.9344311 12.5827474,36.9314371 L12.5824509,13.5242515 Z M2.27938869,22.4134731 L10.5216012,17.0511976 L10.5216012,35.6775449 L2.27938869,30.6242515 L2.27938869,22.4134731 Z M2.27938869,33.057485 L13.7065777,40.0625749 L2.27938869,46.655988 L2.27938869,33.057485 Z M4.35565766,47.8541916 L23.927799,36.5622754 L44.4310292,47.8541916 L4.35565766,47.8541916 Z M46.582319,46.6688623 L34.8861817,40.2275449 L46.582319,33.0571856 L46.582319,46.6688623 Z M46.582319,30.6242515 L38.3398099,35.6772455 L38.3398099,17.0511976 L46.582319,22.4137725 L46.582319,30.6242515 Z" id="Shape" fill="#29A5D0"></path>
                                <path d="M16.7035572,23.9272455 L29.0671725,23.9272455 C29.6365008,23.9272455 30.0975974,23.461976 30.0975974,22.8868263 L30.0975974,16.6452096 C30.0975974,16.0703593 29.6367973,15.6047904 29.0671725,15.6047904 L16.7035572,15.6047904 C16.1342289,15.6047904 15.6731324,16.0700599 15.6731324,16.6452096 L15.6731324,22.8868263 C15.6731324,23.461976 16.1342289,23.9272455 16.7035572,23.9272455 Z M17.7336855,17.6853293 L28.0367477,17.6853293 L28.0367477,21.8464072 L17.7336855,21.8464072 L17.7336855,17.6853293 Z" id="Shape" fill="#50CFE3"></path>
                                <rect id="Rectangle-path" fill="#50CFE3" x="15.6731324" y="26.0077844" width="16.4847216" height="2.08053892"></rect>
                                <rect id="Rectangle-path" fill="#50CFE3" x="15.6731324" y="30.1691617" width="16.4847216" height="2.08053892"></rect>
                                <path d="M43.491341,12.4841317 C43.7549519,12.4841317 44.0185627,12.3826347 44.2199033,12.1793413 L47.8621215,8.50179641 C48.2645061,8.09550898 48.2645061,7.43712575 47.8621215,7.03083832 C47.4597369,6.6242515 46.8076781,6.6245509 46.4052935,7.03083832 L42.7630753,10.7083832 C42.3606907,11.1146707 42.3606907,11.7730539 42.7630753,12.1793413 C42.9641194,12.3826347 43.2277302,12.4841317 43.491341,12.4841317 Z" id="Shape" fill="#50CFE3"></path>
                                <path d="M4.64180441,12.1793413 C4.84314497,12.3826347 5.10675582,12.4841317 5.37036666,12.4841317 C5.6339775,12.4841317 5.89758834,12.3826347 6.09892891,12.1793413 C6.50131351,11.7730539 6.50131351,11.1146707 6.09892891,10.7083832 L2.45641419,7.03083832 C2.05402959,6.6245509 1.40197082,6.6245509 0.999586218,7.03083832 C0.597201615,7.43712575 0.597201615,8.09550898 0.999586218,8.50179641 L4.64180441,12.1793413 Z" id="Shape" fill="#50CFE3"></path>
                                <path d="M34.8666111,7.20838323 C34.9914481,7.25928144 35.1213262,7.28233533 35.248832,7.28233533 C35.6574436,7.28233533 36.0447054,7.03532934 36.2057186,6.62814371 L38.2662717,1.42664671 C38.4776941,0.893413174 38.2200138,0.287724551 37.6919025,0.0745508982 C37.1688322,-0.137724551 36.5639209,0.119161677 36.352795,0.654491018 L34.2922419,5.85598802 C34.0808195,6.38952096 34.3382033,6.99520958 34.8666111,7.20838323 Z" id="Shape" fill="#50CFE3"></path>
                                <path d="M13.6861174,6.62844311 C13.8471306,7.03592814 14.2343924,7.28263473 14.643004,7.28263473 C14.7708064,7.28263473 14.9006844,7.25928144 15.0252249,7.20838323 C15.5533362,6.99491018 15.8110165,6.38952096 15.5995941,5.85628743 L13.539041,0.654790419 C13.3276186,0.119461078 12.7241899,-0.137724551 12.1999335,0.0748502994 C11.6718222,0.288323353 11.4141419,0.893712575 11.6255643,1.42694611 L13.6861174,6.62844311 Z" id="Shape" fill="#50CFE3"></path>
                            </g>
                        </g>
                    </g>
                </g>
            </g>
        </g>
    </g>
</svg>