<?xml version="1.0" encoding="UTF-8"?>
<svg width="49px" height="50px" viewBox="0 0 49 50" version="1.1" xmlns="http://www.w3.org/2000/svg" xmlns:xlink="http://www.w3.org/1999/xlink">
    <!-- Generator: Sketch 46.1 (44463) - http://www.bohemiancoding.com/sketch -->
    <title>002-telephone</title>
    <desc>Created with Sketch.</desc>
    <defs></defs>
    <g id="Index" stroke="none" stroke-width="1" fill="none" fill-rule="evenodd">
        <g id="1440_How-to-Book" transform="translate(-159.000000, -839.000000)" fill-rule="nonzero">
            <g id="How-To-Book" transform="translate(152.000000, 424.000000)">
                <g id="How-to-Book">
                    <g id="Item#1" transform="translate(0.000000, 376.000000)">
                        <g id="ic_phone" transform="translate(0.000000, 32.000000)">
                            <g id="002-telephone" transform="translate(7.000000, 7.000000)">
                                <path d="M33.9575976,32.7120482 C33.5942805,32.3460843 33.0197256,32.3012048 32.606811,32.6099398 L30.2867805,34.3391566 C28.0417439,36.0141566 24.6054695,35.7527108 22.6290366,33.761747 L15.8879512,26.9659639 C13.9115183,24.9728916 13.6545671,21.5093373 15.315189,19.2454819 L17.030189,16.9069277 C17.3358415,16.4900602 17.2928171,15.9105422 16.9292012,15.5445783 L9.7005061,8.25783133 C9.30970122,7.86445783 8.68106707,7.84578313 8.27203659,8.22018072 L3.2247378,12.7987952 C-0.577542683,16.2493976 -1.08756098,22.3171687 2.07353659,26.3590361 C2.39382927,26.8740964 4.19338415,29.471988 12.1678354,37.5114458 C20.1088232,45.5168675 22.6911829,47.3433735 23.2152439,47.6756024 C24.9747622,49.1063253 27.1331524,49.8054217 29.2936341,49.8045181 C32.0209024,49.8045181 34.7508598,48.6903614 36.681878,46.5277108 L41.2242378,41.4391566 C41.5938293,41.0253012 41.5770976,40.3924699 41.1868902,39.9990964 L33.9575976,32.7120482 Z M35.1386768,45.1277108 C32.3922866,48.203012 27.6082134,48.598494 24.4740061,46.0096386 C24.4348659,45.9771084 24.384372,45.9421687 24.34075,45.9156627 C24.2490244,45.8605422 21.9932317,44.4563253 13.6360427,36.0316265 C5.27706098,27.6051205 3.87757317,25.3228916 3.82827439,25.2400602 C3.80138415,25.1930723 3.77090854,25.1481928 3.73714634,25.1051205 C1.20408537,21.9144578 1.59757927,17.0915663 4.61346951,14.3545181 L8.9287561,10.4400602 L14.8290732,16.3873494 L13.6456037,18.0012048 C11.3990732,21.0653614 11.7462561,25.7512048 14.4200427,28.4463855 L21.1608293,35.2418675 C23.8343171,37.9379518 28.4818476,38.2876506 31.5210427,36.0225904 L33.1219085,34.8298193 L39.0222256,40.7771084 L35.1386768,45.1277108 Z" id="Shape" fill="#29A5D0"></path>
                                <path d="M27.7384817,6.58614458 C27.165122,6.58614458 26.7002195,7.05421687 26.7002195,7.63283133 C26.7002195,8.21144578 27.165122,8.67951807 27.7384817,8.67951807 C31.0657012,8.67951807 34.1945305,9.98554217 36.5474268,12.3578313 C38.9003232,14.7301205 40.1961341,17.8828313 40.1961341,21.238253 C40.1961341,21.8165663 40.6610366,22.2849398 41.2343963,22.2849398 C41.8077561,22.2849398 42.2726585,21.8168675 42.2726585,21.238253 C42.2726585,17.3237952 40.761128,13.6445783 38.0156341,10.878012 C35.270439,8.10963855 31.6208354,6.58614458 27.7384817,6.58614458 Z" id="Shape" fill="#50CFE3"></path>
                                <path d="M42.4199573,6.43674699 C38.3012683,2.28644578 32.8267134,0 27.004378,0 C26.4310183,0 25.9661159,0.468072289 25.9661159,1.04668675 C25.9661159,1.6253012 26.4310183,2.09337349 27.004378,2.09337349 C32.2721768,2.09337349 37.2256585,4.16204819 40.95175,7.91686747 C44.6769451,11.6728916 46.7289695,16.6665663 46.7289695,21.978012 C46.7289695,22.5563253 47.193872,23.0246988 47.7672317,23.0246988 C48.3405915,23.0246988 48.8054939,22.5566265 48.8054939,21.978012 C48.8051951,16.1072289 46.5374512,10.588253 42.4199573,6.43674699 Z" id="Shape" fill="#50CFE3"></path>
                                <path d="M32.1428049,16.796988 C33.5154024,18.1807229 34.2713171,20.0204819 34.2713171,21.9777108 C34.2713171,22.5560241 34.7362195,23.0243976 35.3095793,23.0243976 C35.882939,23.0243976 36.3478415,22.5563253 36.3478415,21.9777108 C36.3478415,19.4614458 35.3762073,17.0963855 33.6110122,15.3171687 C31.8458171,13.5379518 29.5000915,12.5587349 27.004378,12.5587349 C26.4310183,12.5587349 25.9661159,13.0268072 25.9661159,13.6054217 C25.9661159,14.1840361 26.4310183,14.6521084 27.004378,14.6521084 C28.9452561,14.6518072 30.7702073,15.4141566 32.1428049,16.796988 Z" id="Shape" fill="#50CFE3"></path>
                            </g>
                        </g>
                    </g>
                </g>
            </g>
        </g>
    </g>
</svg>