<?xml version="1.0" encoding="UTF-8"?>
<svg width="16px" height="16px" viewBox="0 0 16 16" version="1.1" xmlns="http://www.w3.org/2000/svg" xmlns:xlink="http://www.w3.org/1999/xlink">
    <!-- Generator: Sketch 46.1 (44463) - http://www.bohemiancoding.com/sketch -->
    <title>Shape</title>
    <desc>Created with Sketch.</desc>
    <defs></defs>
    <g id="Index" stroke="none" stroke-width="1" fill="none" fill-rule="evenodd">
        <g id="1440_About" transform="translate(-110.000000, -1304.000000)" fill-rule="nonzero" fill="#FF4B34">
            <g id="Team" transform="translate(0.000000, 1280.000000)">
                <g id="Title" transform="translate(110.000000, 0.000000)">
                    <g id="Line" transform="translate(0.000000, 24.000000)">
                        <g id="pointer">
                            <g id="people-(5)">
                                <path d="M7.99984,0 C3.58170667,0 5.33333333e-05,3.58176 5.33333333e-05,7.99973333 C5.33333333e-05,12.4177067 3.58170667,15.9998933 7.99978667,15.9998933 C12.4178667,15.9998933 15.9997867,12.4178667 15.9997867,7.99973333 C15.9997867,3.5816 12.41792,0 7.99984,0 Z M2.17237333,11.01312 C2.17237333,8.51402667 4.36714667,8.51456 4.85418667,7.86112 L4.90992,7.56314667 C4.22565333,7.21621333 3.74261333,6.38032 3.74261333,5.4024 C3.74261333,4.11418667 4.58058667,3.06970667 5.61402667,3.06970667 C6.42778667,3.06970667 7.11829333,3.71845333 7.376,4.62266667 C6.3408,4.95162667 5.57504,6.07408 5.57504,7.40837333 C5.57504,8.32698667 5.93717333,9.17157333 6.53168,9.70816 C6.43621333,9.75712 6.33002667,9.80704 6.23872,9.84981333 C5.75930667,10.07472 5.09477333,10.38736 4.61536,11.01312 L2.17237333,11.01312 L2.17237333,11.01312 Z M8.02416,13.0189333 L8.02416,13.0188267 L7.97530667,13.0188267 L4.55818667,13.0188267 C4.55818667,10.51984 6.75296,10.5205333 7.24,9.86709333 L7.29573333,9.56912 C6.61146667,9.22218667 6.12842667,8.38629333 6.12842667,7.40837333 C6.12842667,6.12016 6.9664,5.07568 7.99984,5.07568 C9.03328,5.07568 9.87125333,6.12016 9.87125333,7.40837333 C9.87125333,8.37786667 9.3968,9.2088 8.72165333,9.56096 L8.78512,9.89973333 C9.31946667,10.5214933 11.4412267,10.5620267 11.4412267,13.0189333 L8.02416,13.0189333 L8.02416,13.0189333 Z M11.3841067,11.0132267 L11.3841067,11.01312 L11.3841067,11.01312 C10.9045333,10.3874667 10.24,10.07488 9.76058667,9.84997333 C9.66624,9.80570667 9.56165333,9.75658667 9.46816,9.70858667 C10.0621333,9.17130667 10.4246933,8.32490667 10.4246933,7.40837333 C10.4246933,6.07424 9.6592,4.952 8.62426667,4.62293333 C8.88181333,3.71856 9.57232,3.06981333 10.38624,3.06981333 C11.4197867,3.06981333 12.2576533,4.11429333 12.2576533,5.40250667 C12.2576533,6.372 11.7832,7.20282667 11.1080533,7.55509333 L11.17152,7.89386667 C11.7058667,8.51552 13.8276267,8.556 13.8276267,11.0132267 L11.3841067,11.0132267 Z" id="Shape"></path>
                            </g>
                        </g>
                    </g>
                </g>
            </g>
        </g>
    </g>
</svg>