<?xml version="1.0" encoding="UTF-8"?>
<svg width="16px" height="14px" viewBox="0 0 16 14" version="1.1" xmlns="http://www.w3.org/2000/svg" xmlns:xlink="http://www.w3.org/1999/xlink">
    <!-- Generator: Sketch 46.1 (44463) - http://www.bohemiancoding.com/sketch -->
    <title>Combined Shape</title>
    <desc>Created with Sketch.</desc>
    <defs></defs>
    <g id="Index" stroke="none" stroke-width="1" fill="none" fill-rule="evenodd">
        <g id="1440_About" transform="translate(-112.000000, -452.000000)" fill-rule="nonzero" fill="#FF4B34">
            <g id="Line" transform="translate(112.000000, 450.000000)">
                <g id="pointer" transform="translate(0.000000, 2.000000)">
                    <path d="M10.0000977,9.62502793 L10.0000977,8.16674648 L16,8.16674648 L16,12.5418143 C16,12.9427866 15.8602419,13.2860394 15.5803818,13.5716045 C15.3006155,13.8572015 14.9642767,14 14.5714906,14 L1.42860326,14 C1.03572329,14 0.69935324,13.8572015 0.419618198,13.5716045 C0.139820612,13.2860394 0,12.9427866 0,12.5418143 L0,8.16674648 L5.99999609,8.16674648 L5.99999609,9.62502793 C5.99999609,9.78305445 6.05653728,9.91991499 6.16961966,10.0351626 C6.28273332,10.1507614 6.4166121,10.2084491 6.57147492,10.2084491 L9.42858762,10.2084491 C9.58335663,10.2084491 9.7173605,10.1507614 9.83047415,10.0351626 C9.94346272,9.91988306 10.0000977,9.78302253 10.0000977,9.62502793 Z M6.85705797,8.16674648 L9.1429733,8.16674648 L9.1429733,9.33342911 L6.85705797,9.33342911 L6.85705797,8.16674648 Z M15.5803505,2.76172885 C15.8602419,3.04732586 15.9999687,3.39051476 15.9999687,3.79158286 L15.9999687,7.29166268 L0,7.29166268 L0,3.79158286 C0,3.39051476 0.139820612,3.04732586 0.419618198,2.76172885 C0.699384513,2.47609991 1.03575456,2.33336526 1.42860326,2.33336526 L4.57148665,2.33336526 L4.57148665,0.874956104 C4.57148665,0.631850666 4.65476607,0.425234987 4.82148127,0.255172917 C4.98819648,0.0851108466 5.19056266,0 5.42861108,0 L10.5714827,0 C10.8094999,0 11.0119912,0.0851108466 11.1785187,0.255172917 C11.3452339,0.425330761 11.4285134,0.631882591 11.4285134,0.874956104 L11.4285134,2.33336526 L14.5714593,2.33336526 C14.9642454,2.33336526 15.3006155,2.47609991 15.5803505,2.76172885 Z M10.2857433,2.33336526 L10.2857433,1.16661878 L5.71431922,1.16661878 L5.71431922,2.33336526 L10.2857433,2.33336526 Z" id="Combined-Shape"></path>
                </g>
            </g>
        </g>
    </g>
</svg>