<?xml version="1.0" encoding="UTF-8"?>
<svg width="16px" height="16px" viewBox="0 0 16 16" version="1.1" xmlns="http://www.w3.org/2000/svg" xmlns:xlink="http://www.w3.org/1999/xlink">
    <!-- Generator: Sketch 46.1 (44463) - http://www.bohemiancoding.com/sketch -->
    <title>Shape</title>
    <desc>Created with Sketch.</desc>
    <defs></defs>
    <g id="Index" stroke="none" stroke-width="1" fill="none" fill-rule="evenodd">
        <g id="1440_How-to-Book" transform="translate(-112.000000, -447.000000)" fill-rule="nonzero" fill="#FF4B34">
            <g id="Line" transform="translate(112.000000, 447.000000)">
                <g id="pointer">
                    <path d="M7.89312971,0.000727043107 C3.47518369,0.0598572617 -0.0580600747,3.68958312 0.000722972706,8.10765392 C0.0598538488,12.5238117 3.68927224,16.0580596 8.10704435,15.9992772 C12.5241208,15.9397992 16.0580602,12.3100733 15.9992772,7.89235036 C15.9401463,3.47584477 12.310554,-0.0582292631 7.89312971,0.000727043107 Z M7.86947736,12.8695496 L7.82530311,12.8688539 C7.14495021,12.8486801 6.66529446,12.3474645 6.68459895,11.6772061 C6.70355561,11.0184259 7.19486363,10.5401668 7.85278158,10.5401668 L7.89226014,10.5408624 C8.5915697,10.561558 9.06583411,11.0577301 9.04618179,11.7472928 C9.02670339,12.407986 8.5430476,12.8695496 7.86947736,12.8695496 Z M10.7312378,7.18974424 C10.5712367,7.41704775 10.2194079,7.69930759 9.77610028,8.04469763 L9.28792273,8.38173988 C9.01992073,8.59008694 8.85818039,8.78608623 8.79748428,8.97895509 C8.74965784,9.13078062 8.7261794,9.17095438 8.72200546,9.47982282 L8.7213098,9.55825732 L6.85729589,9.55825732 L6.86268723,9.40051876 C6.88547001,8.75217331 6.90147013,8.3707834 7.17016779,8.05565411 C7.59173615,7.5606994 8.52165614,6.96191898 8.56113469,6.93652777 C8.69435308,6.83618031 8.80670174,6.72191986 8.89035454,6.59983335 C9.08600818,6.33009521 9.17261752,6.11774816 9.17261752,5.90905327 C9.17261752,5.61948911 9.08670383,5.351664 8.91678952,5.11323009 C8.75348395,4.88314397 8.44322077,4.76662266 7.99452177,4.76662266 C7.54947497,4.76662266 7.24477704,4.90783954 7.06251481,5.19757761 C6.87503515,5.49548956 6.78025184,5.80835798 6.78025184,6.12800899 L6.78025184,6.20748696 L4.85832445,6.20748696 L4.86180273,6.12453074 C4.91136832,4.94731765 5.33154537,4.09966858 6.11015988,3.60506169 C6.59938092,3.29010632 7.20808112,3.13045473 7.91834729,3.13045473 C8.84809336,3.13045473 9.63296878,3.35636695 10.2508864,3.80193054 C10.8769781,4.25340715 11.1945457,4.92957859 11.1945457,5.81166232 C11.1945457,6.30505182 11.0387184,6.76852839 10.7312378,7.18974424 Z" id="Shape"></path>
                </g>
            </g>
        </g>
    </g>
</svg>