<svg width="36" height="13" viewBox="0 0 36 13" xmlns="http://www.w3.org/2000/svg"><title>american_express</title><defs><path id="a" d="M34.005.097H0v6.1h34.005v-6.1z"/></defs><g fill="none" fill-rule="evenodd"><path fill="#FFF" d="M24.406 7.702h3.426v.93h-2.377v.812h2.31v.821h-2.31v.854h2.377v.908h-3.426zM34.452 9.387c1.288.067 1.396.719 1.396 1.414 0 .81-.658 1.246-1.344 1.246h-2.201v-.928h1.715c.29 0 .724 0 .724-.415 0-.197-.076-.323-.386-.356-.137-.02-.646-.05-.724-.05-1.163-.031-1.434-.618-1.434-1.332 0-.81.562-1.254 1.249-1.254h2.2v.927h-1.61c-.366.004-.762-.044-.762.375 0 .266.195.32.443.344.086 0 .658.03.734.03M30.506 9.387c1.288.067 1.396.719 1.396 1.414 0 .81-.657 1.246-1.344 1.246h-2.2v-.928h1.715c.29 0 .724 0 .724-.415 0-.197-.077-.323-.387-.356-.137-.02-.647-.05-.723-.05-1.165-.031-1.434-.618-1.434-1.332 0-.81.562-1.254 1.248-1.254h2.2v.927h-1.61c-.366.004-.762-.044-.762.375 0 .266.196.32.444.344.085 0 .657.03.733.03M17.725 9.678H16.42V8.64h1.31c.438 0 .577.284.577.497 0 .29-.153.54-.582.54zm-2.363 1.943l-1.506-1.805 1.506-1.69v3.495zm-4.006-.502H8.939v-.854h2.312v-.82H8.939v-.812l2.55.006 1.02 1.177-1.153 1.303zm6.722-3.408H14.4l-1.201 1.342-1.162-1.351H7.906v4.325h3.997l1.258-1.429 1.229 1.44H16.4v-1.47h1.41c.543 0 1.535-.018 1.535-1.534 0-1.082-.753-1.323-1.268-1.323zM22.237 9.62H20.93v-.98h1.31c.438 0 .577.284.577.496 0 .29-.152.483-.581.483m.904.448c.573-.29.725-.676.725-1.197 0-.926-.743-1.158-1.258-1.158h-2.725v4.325h1.048v-1.526h1.372c.363 0 .505.367.515.734l.027.792h1.02l-.038-.889c0-.695-.189-1.023-.686-1.08M20.303 4.565h1.048V.235h-1.048zM11.722.24h3.426v.93H12.77v.813h2.31v.82h-2.31v.854h2.377v.908h-3.426zM18.124 2.147h-1.306v-.98h1.31c.438 0 .577.285.577.497 0 .29-.152.483-.581.483m.905.448c.572-.288.724-.676.724-1.197C19.753.47 19.01.24 18.496.24H15.77v4.325h1.048V3.04h1.373c.362 0 .505.366.514.733l.029.792h1.02l-.038-.889c0-.694-.19-1.023-.687-1.08M1.92 2.666l.625-1.512.651 1.512H1.92zM9.305.24L8.018 3.14 6.736.24H5.093v4.166L3.263.24H1.876L.008 4.565h1.106l.41-.966h2.092l.415.966h2.11v-3.21l1.4 3.21h.954l1.434-3.157v3.157h1.048V.24H9.305zM25.729 2.668l.624-1.512.658 1.512h-1.282zm6.438-2.43v2.994L30.399.238H28.85V4.3L27.065.24h-1.388l-1.443 3.35s-.61 0-.672-.015c-.252-.053-.647-.233-.652-.996v-.314c0-1.014.543-1.088 1.24-1.088h.647v-.94h-1.369c-.476 0-1.513.369-1.548 2.146-.024 1.197.49 2.184 1.653 2.184h1.383l.409-.965h2.091l.415.965h2.068V1.4l1.886 3.167h1.43V.237h-1.048z"/></g></svg>