<svg width="53" height="10" viewBox="0 0 53 10" xmlns="http://www.w3.org/2000/svg"><title>discover</title><defs><radialGradient fx="50%" fy="50%" r="50.154%" gradientTransform="matrix(.0172 .99985 -1.00152 .01724 .992 -.009)" id="a"><stop stop-color="#FFF" offset="0%"/><stop stop-color="#F48323" offset="100%"/></radialGradient></defs><g fill="none" fill-rule="evenodd"><circle fill="url(#a)" cx="27.75" cy="5.25" r="4.25"/><path d="M4.538 7.234c.562-.501.897-1.308.897-2.114 0-.804-.335-1.582-.897-2.086-.54-.489-1.175-.678-2.229-.678h-.437v5.545h.437c1.054 0 1.714-.202 2.229-.667zM2.635.936c2.638 0 4.477 1.722 4.477 4.197A4.231 4.231 0 0 1 5.6 8.353c-.801.666-1.714.968-2.975.968H.245V.936h2.39zM7.863 9.32V.936h1.623V9.32H7.863zm5.602-5.168c1.853.68 2.401 1.285 2.401 2.617 0 1.621-1.188 2.754-2.875 2.754-1.24 0-2.14-.491-2.888-1.596l1.049-1.02c.374.73.999 1.118 1.775 1.118.727 0 1.264-.501 1.264-1.182 0-.352-.164-.652-.488-.866-.163-.102-.488-.253-1.126-.479-1.526-.553-2.051-1.143-2.051-2.3 0-1.37 1.127-2.401 2.6-2.401.914 0 1.752.313 2.453.931l-.85 1.117c-.427-.476-.827-.677-1.313-.677-.702 0-1.213.402-1.213.929 0 .452.285.692 1.262 1.055zm2.913.98c0-2.435 1.976-4.384 4.441-4.384.7 0 1.289.149 2 .513v1.924c-.675-.665-1.263-.943-2.038-.943-1.527 0-2.727 1.27-2.727 2.878 0 1.698 1.165 2.892 2.803 2.892.736 0 1.312-.262 1.963-.917V9.02c-.738.352-1.337.49-2.039.49-2.477 0-4.403-1.91-4.403-4.376zM36 6.569L38.253.936h1.762l-3.602 8.6h-.874l-3.542-8.6h1.778L36 6.568zm4.755 2.753V.936h4.613v1.42h-2.99v1.861h2.876v1.42H42.38V7.9h2.99v1.42h-4.614zm11.053-5.91c0 1.283-.675 2.126-1.902 2.377l2.627 3.533h-2l-2.25-3.37h-.213v3.37h-1.628V.936h2.415c1.876 0 2.95.904 2.95 2.475zm-3.265 1.384c1.041 0 1.59-.454 1.59-1.296 0-.815-.549-1.245-1.563-1.245h-.5v2.54h.473z" fill="#FFF"/></g></svg>