<svg width="16" height="16" viewBox="0 0 16 16" xmlns="http://www.w3.org/2000/svg"><title>google</title><g fill-rule="nonzero" fill="#FFF"><path d="M7.267 9.175c-.054-.032-.108-.067-.165-.102A2.03 2.03 0 0 0 6.579 9h-.022C5.727 9 5 9.46 5 9.983 5 10.554 5.624 11 6.419 11 7.469 11 8 10.668 8 10.016a.751.751 0 0 0-.025-.19c-.07-.253-.325-.41-.708-.65zM6.218 8h.001c.207 0 .38-.09.516-.264.211-.269.305-.71.25-1.18C6.885 5.717 6.35 5.019 5.79 5L5.767 5a.635.635 0 0 0-.51.263c-.208.266-.296.687-.241 1.156.098.838.646 1.562 1.195 1.581h.007z"/><path d="M8 0C3.589 0 0 3.589 0 8c0 4.41 3.589 8 8 8 4.41 0 8-3.59 8-8 0-4.411-3.588-8-8-8zm-.922 11.896c-.303.087-.63.131-.973.131-.382 0-.75-.044-1.092-.13-.663-.168-1.153-.485-1.381-.893a1.136 1.136 0 0 1-.149-.56c0-.2.048-.405.143-.606.363-.774 1.32-1.295 2.38-1.295h.031a.945.945 0 0 1-.095-.726c-1.112-.025-1.944-.84-1.944-1.914 0-.758.606-1.497 1.473-1.795.26-.09.524-.135.784-.135h2.379c.08 0 .152.052.177.13a.186.186 0 0 1-.068.208l-.532.385a.19.19 0 0 1-.11.035h-.19c.246.294.39.715.39 1.187 0 .521-.264 1.014-.743 1.39-.371.288-.386.368-.386.532.005.09.263.386.548.588.663.469.91.93.91 1.698 0 .802-.61 1.496-1.552 1.77zm5.372-4.08a.187.187 0 0 1-.187.186h-1.352v1.353a.187.187 0 0 1-.186.187h-.385a.187.187 0 0 1-.188-.187V8.002h-1.35a.187.187 0 0 1-.187-.187v-.384c0-.103.083-.188.186-.188h1.351v-1.35c0-.104.084-.188.188-.188h.385c.102 0 .186.084.186.187v1.351h1.352c.102 0 .187.084.187.187v.385z"/></g></svg>