<svg width="16" height="16" viewBox="0 0 16 16" xmlns="http://www.w3.org/2000/svg"><title>instagram</title><g fill="none" fill-rule="evenodd"><path d="M8 0C3.589 0 0 3.589 0 8c0 4.41 3.589 8 8 8 4.41 0 8-3.59 8-8 0-4.411-3.588-8-8-8z" fill="#FFF" fill-rule="nonzero"/><path d="M8 3.5c-1.222 0-1.375.005-1.855.027s-.806.098-1.093.21a2.206 2.206 0 0 0-.797.518c-.25.25-.404.501-.519.797-.111.287-.187.614-.209 1.093-.022.48-.027.633-.027 1.855s.005 1.375.027 1.855.098.806.21 1.093c.114.296.268.547.518.797s.501.404.797.519c.287.111.614.187 1.093.209.48.022.633.027 1.855.027s1.375-.005 1.855-.027.806-.098 1.093-.21c.296-.114.547-.268.797-.518s.404-.501.519-.797c.111-.287.187-.614.209-1.093.022-.48.027-.633.027-1.855s-.005-1.375-.027-1.855-.098-.806-.21-1.093a2.206 2.206 0 0 0-.518-.797 2.206 2.206 0 0 0-.797-.519c-.287-.111-.614-.187-1.093-.209C9.375 3.505 9.222 3.5 8 3.5zm0 .81c1.202 0 1.344.005 1.818.027.44.02.677.093.836.155.21.082.36.18.517.337.158.157.255.307.337.517.062.159.135.397.155.836.022.474.026.616.026 1.818s-.004 1.344-.026 1.818c-.02.44-.093.677-.155.836-.082.21-.18.36-.337.517a1.394 1.394 0 0 1-.517.337c-.159.062-.397.135-.836.155-.474.022-.616.026-1.818.026s-1.344-.004-1.818-.026c-.44-.02-.677-.093-.836-.155-.21-.082-.36-.18-.517-.337a1.394 1.394 0 0 1-.337-.517c-.062-.159-.135-.397-.155-.836-.022-.474-.026-.616-.026-1.818s.004-1.344.026-1.818c.02-.44.093-.677.155-.836.082-.21.18-.36.337-.517.157-.158.307-.255.517-.337.159-.062.397-.135.836-.155.474-.022.616-.026 1.818-.026zm0 1.38a2.31 2.31 0 1 0 0 4.62 2.31 2.31 0 0 0 0-4.62zM8 9.5a1.5 1.5 0 1 1 0-3 1.5 1.5 0 0 1 0 3zm2.942-3.902a.54.54 0 1 0-1.08 0 .54.54 0 0 0 1.08 0z" fill="#0A0B09"/></g></svg>