<svg width="16" height="16" viewBox="0 0 16 16" xmlns="http://www.w3.org/2000/svg"><title>linkedin</title><path d="M8 0c4.412 0 8 3.589 8 8 0 4.41-3.59 8-8 8-4.411 0-8-3.59-8-8 0-4.411 3.589-8 8-8zm4.5 12V9.012c0-1.6-.862-2.345-2.011-2.345-.928 0-1.343.506-1.575.86V6.79H7.167c.023.49 0 5.21 0 5.21h1.747V9.09c0-.155.011-.31.058-.421.126-.312.413-.634.896-.634.632 0 .885.478.885 1.178V12H12.5zM5.384 5.778c.55 0 .894-.396.894-.89C6.268 4.385 5.934 4 5.394 4s-.894.384-.894.889c0 .493.343.889.874.889h.01zM6.278 12V6.667H4.5V12h1.778z" fill-rule="nonzero" fill="#FFF"/></svg>