<svg width="24" height="18" viewBox="0 0 24 18" xmlns="http://www.w3.org/2000/svg"><title>mc_vrt_pos</title><g fill-rule="nonzero" fill="none"><path d="M4.38 17.854v-1.187a.69.69 0 0 0-.21-.544.745.745 0 0 0-.562-.208.768.768 0 0 0-.689.336.727.727 0 0 0-.648-.336.656.656 0 0 0-.575.281v-.233H1.27v1.89h.43v-1.04a.433.433 0 0 1 .118-.36.468.468 0 0 1 .363-.142c.283 0 .426.178.426.498v1.053h.43v-1.049a.435.435 0 0 1 .12-.36.47.47 0 0 1 .36-.142c.292 0 .432.178.432.498v1.053l.43-.008zm6.373-1.891h-.702v-.574h-.43v.574h-.39v.375h.398v.87c0 .44.176.701.68.701.19 0 .374-.05.534-.146l-.123-.352a.81.81 0 0 1-.377.106c-.206 0-.284-.126-.284-.316v-.863h.698l-.004-.375zm3.639-.048a.583.583 0 0 0-.517.277v-.23h-.423v1.892h.427v-1.06c0-.313.14-.487.41-.487a.718.718 0 0 1 .267.047l.131-.395a.943.943 0 0 0-.303-.052l.008.008zm-5.502.198a1.51 1.51 0 0 0-.8-.198c-.496 0-.82.23-.82.605 0 .309.238.499.677.558l.205.028c.234.032.344.09.344.198 0 .146-.155.23-.447.23a1.07 1.07 0 0 1-.652-.199l-.205.32c.248.168.546.254.849.246.566 0 .894-.257.894-.617s-.258-.506-.685-.566l-.205-.027c-.184-.024-.332-.06-.332-.186 0-.127.14-.222.373-.222a1.3 1.3 0 0 1 .616.162l.188-.332zm11.428-.198a.583.583 0 0 0-.517.277v-.23h-.423v1.892h.427v-1.06c0-.313.14-.487.41-.487a.718.718 0 0 1 .267.047l.131-.395a.943.943 0 0 0-.303-.052l.008.008zm-5.497.99c-.01.268.097.528.296.717.2.188.471.286.75.271a1.05 1.05 0 0 0 .705-.225l-.205-.333a.882.882 0 0 1-.513.17.617.617 0 0 1-.579-.605c0-.316.252-.58.58-.605a.882.882 0 0 1 .512.17l.205-.332a1.05 1.05 0 0 0-.705-.226 1.012 1.012 0 0 0-.75.272.938.938 0 0 0-.296.717v.008zm3.995 0v-.942h-.426v.23a.756.756 0 0 0-.616-.278c-.566 0-1.025.443-1.025.99 0 .545.459.988 1.025.988a.756.756 0 0 0 .616-.277v.23h.426v-.942zm-1.587 0a.585.585 0 0 1 .614-.538c.322.011.575.27.57.58a.583.583 0 0 1-.59.562.6.6 0 0 1-.434-.177.556.556 0 0 1-.16-.428zm-5.149-.99c-.566.008-1.02.457-1.011 1.003.008.546.473.983 1.04.975.295.015.585-.077.814-.257l-.205-.305a.955.955 0 0 1-.57.198.539.539 0 0 1-.587-.463h1.456v-.158c0-.593-.381-.989-.93-.989l-.007-.004zm0 .368a.496.496 0 0 1 .347.13.461.461 0 0 1 .15.329H11.55a.498.498 0 0 1 .52-.459h.009zm10.69.625v-1.705h-.411v.99a.756.756 0 0 0-.615-.278c-.567 0-1.026.443-1.026.99 0 .545.46.988 1.026.988a.756.756 0 0 0 .615-.277v.23h.41v-.938zm-1.578 0a.585.585 0 0 1 .614-.537c.322.011.576.27.57.58a.583.583 0 0 1-.59.562.6.6 0 0 1-.434-.177.556.556 0 0 1-.16-.428zm-14.406 0v-.945h-.427v.23a.756.756 0 0 0-.615-.278c-.567 0-1.026.443-1.026.99 0 .545.46.988 1.026.988a.756.756 0 0 0 .615-.277v.23h.427v-.938zm-1.588 0a.585.585 0 0 1 .614-.537c.322.011.576.27.57.58a.583.583 0 0 1-.59.562.6.6 0 0 1-.437-.175.556.556 0 0 1-.161-.43h.004z" fill="#FFF"/><path fill="#FF5F00" d="M8.749 1.553h6.462v11.198H8.749z"/><path d="M9.159 7.153c-.002-2.186 1.038-4.25 2.82-5.6-3.027-2.295-7.375-1.96-9.988.768a6.935 6.935 0 0 0 0 9.662c2.613 2.728 6.96 3.062 9.988.767-1.782-1.349-2.822-3.413-2.82-5.597z" fill="#EB001B"/><path d="M23.928 7.153c0 2.726-1.614 5.213-4.157 6.404-2.543 1.192-5.569.878-7.792-.807 1.782-1.35 2.822-3.414 2.822-5.598 0-2.185-1.04-4.25-2.822-5.6 2.223-1.684 5.249-1.998 7.792-.806 2.543 1.191 4.157 3.678 4.157 6.405v.002z" fill="#F79E1B"/></g></svg>