<svg width="45" height="12" viewBox="0 0 45 12" xmlns="http://www.w3.org/2000/svg"><title>paypal</title><path d="M5.4 0H1.9a.487.487 0 0 0-.48.411L.003 9.393a.292.292 0 0 0 .288.337h1.671c.24 0 .444-.174.481-.411l.382-2.423a.486.486 0 0 1 .48-.411h1.108c2.305 0 3.636-1.117 3.984-3.329.156-.968.006-1.729-.447-2.261C7.454.31 6.571 0 5.401 0zm.404 3.28c-.192 1.258-1.151 1.258-2.079 1.258h-.528l.37-2.348a.292.292 0 0 1 .288-.246h.243c.632 0 1.228 0 1.536.36.184.216.24.535.17.977zm10.059-.04c.179 0 .315.16.287.337l-.906 5.741a.486.486 0 0 1-.48.412h-1.51a.292.292 0 0 1-.288-.338l.075-.466s-.828.96-2.32.96c-.87 0-1.6-.251-2.111-.853-.557-.656-.785-1.595-.625-2.577.308-1.97 1.89-3.373 3.742-3.373.808 0 1.617.176 1.98.703l.117.17.074-.47a.292.292 0 0 1 .289-.246h1.676zm-2.337 3.265c.073-.464-.028-.885-.283-1.187-.255-.298-.642-.457-1.118-.457-.955 0-1.727.665-1.878 1.615-.079.466.015.884.263 1.178.25.296.639.452 1.125.452.97 0 1.73-.643 1.891-1.6zM24.79 3.24c.236 0 .374.265.24.459l-5.602 8.092a.486.486 0 0 1-.4.209h-1.682a.292.292 0 0 1-.238-.46l1.744-2.465-1.855-5.448a.292.292 0 0 1 .277-.387h1.655c.215 0 .405.142.466.348l.985 3.29 2.323-3.424a.488.488 0 0 1 .403-.214h1.684zM30.366 0c1.171 0 2.053.31 2.55.895.453.532.604 1.293.447 2.261-.348 2.212-1.678 3.329-3.984 3.329H28.27a.486.486 0 0 0-.48.411l-.402 2.546a.34.34 0 0 1-.335.288h-1.797a.291.291 0 0 1-.288-.337L26.385.411a.486.486 0 0 1 .48-.41h3.5zm.404 3.28c.07-.44.014-.76-.17-.975-.308-.36-.905-.36-1.536-.36h-.242a.29.29 0 0 0-.288.245l-.37 2.348h.527c.928 0 1.888 0 2.079-1.257zm10.058-.04c.18 0 .317.16.289.337l-.906 5.741a.486.486 0 0 1-.48.412h-1.51a.292.292 0 0 1-.288-.338l.074-.466s-.827.96-2.32.96c-.87 0-1.599-.251-2.11-.853-.558-.656-.784-1.595-.625-2.577.309-1.97 1.89-3.373 3.742-3.373.808 0 1.616.176 1.98.703l.117.17.074-.47a.29.29 0 0 1 .288-.246h1.675zm-2.336 3.265c.074-.464-.028-.885-.284-1.187-.255-.298-.642-.457-1.118-.457-.954 0-1.726.665-1.878 1.615-.078.466.015.884.263 1.178.25.296.64.452 1.125.452.97 0 1.73-.643 1.892-1.6zM42.804.247A.293.293 0 0 1 43.092 0h1.617c.178 0 .316.16.287.338l-1.416 8.98a.485.485 0 0 1-.48.412h-1.445a.291.291 0 0 1-.288-.337L42.804.247z" fill="#FFF" fill-rule="evenodd"/></svg>