<svg width="14" height="14" viewBox="0 0 14 14" xmlns="http://www.w3.org/2000/svg"><title>Shape</title><path d="M2.224.032a.487.487 0 0 0-.29.019C.886.458.228 1.949.073 2.975c-.484 3.33 2.15 6.215 4.57 8.113 2.15 1.684 6.273 4.453 8.713 1.781.31-.329.678-.813.658-1.297-.058-.813-.813-1.394-1.394-1.84-.445-.329-1.374-1.239-1.955-1.22-.523.02-.852.562-1.181.891l-.581.581c-.097.097-1.336-.716-1.472-.813A9.881 9.881 0 0 1 6.02 8.067 9.13 9.13 0 0 1 4.876 6.75c-.097-.135-.89-1.316-.813-1.413 0 0 .678-.736.871-1.026.407-.62.717-1.104.252-1.84-.174-.27-.387-.484-.62-.716C4.16 1.368 3.753.96 3.288.632 3.037.438 2.611.09 2.224.032z" fill-rule="nonzero" fill="#FFF"/></svg>