<svg width="16" height="15" viewBox="0 0 16 15" xmlns="http://www.w3.org/2000/svg"><title>pointer</title><path d="M15.45 8.33c.1.287.15.534.15.743.02.494-.124.94-.43 1.337.113.365.113.746 0 1.143-.1.371-.28.677-.54.918.06.729-.104 1.318-.49 1.767-.427.495-1.084.749-1.97.762h-1.29c-.44 0-.92-.05-1.44-.151-.52-.101-.925-.196-1.215-.284-.29-.088-.692-.216-1.205-.385-.82-.28-1.347-.424-1.58-.43a.669.669 0 0 1-.45-.19.578.578 0 0 1-.19-.435v-6.26c0-.163.06-.304.18-.425a.662.662 0 0 1 .43-.2c.16-.013.413-.205.76-.576.346-.371.683-.765 1.01-1.182.453-.566.79-.957 1.01-1.172.12-.117.223-.273.31-.468.086-.196.145-.353.175-.474.03-.12.075-.317.135-.59.047-.255.088-.453.125-.596.037-.144.102-.313.195-.508.093-.195.207-.358.34-.488A.623.623 0 0 1 9.92 0c.307 0 .582.034.825.103.244.068.444.152.6.253.157.101.29.233.4.396.11.163.19.31.24.44.05.13.09.292.12.488.03.195.047.341.05.44.004.097.005.224.005.38 0 .247-.031.495-.094.742a3.923 3.923 0 0 1-.19.586 8 8 0 0 1-.375.723 1.619 1.619 0 0 0-.19.449h2.77c.52 0 .97.185 1.35.557.379.37.569.81.569 1.318 0 .56-.183 1.045-.55 1.455zM3.52 6.25c.173 0 .323.062.45.186.127.123.19.27.19.44v6.25c0 .168-.063.315-.19.439a.623.623 0 0 1-.45.185H.64a.623.623 0 0 1-.45-.185.594.594 0 0 1-.19-.44v-6.25c0-.17.063-.316.19-.44a.622.622 0 0 1 .45-.185h2.88z" fill-rule="nonzero" fill="#FC5245"/></svg>