<svg width="16" height="16" viewBox="0 0 16 16" xmlns="http://www.w3.org/2000/svg"><title>cancel</title><g fill-rule="nonzero" fill="#9198AD"><path d="M13.634 2.29A8.017 8.017 0 0 0 7.987 0a8.017 8.017 0 0 0-5.648 2.29A7.68 7.68 0 0 0 0 7.818c0 2.09.83 4.05 2.34 5.528a8.017 8.017 0 0 0 5.647 2.29 8.017 8.017 0 0 0 5.647-2.29 7.68 7.68 0 0 0 2.34-5.528c0-2.09-.831-4.05-2.34-5.528zm-.642 10.427a7.11 7.11 0 0 1-5.005 2.03 7.11 7.11 0 0 1-5.005-2.03 6.834 6.834 0 0 1 0-9.798A7.11 7.11 0 0 1 7.987.889c1.889 0 3.667.72 5.005 2.03a6.834 6.834 0 0 1 0 9.798z"/><path d="M11.506 4.373a.46.46 0 0 0-.642 0L7.987 7.19 5.109 4.373a.46.46 0 0 0-.642 0 .436.436 0 0 0 0 .628l2.878 2.817-2.878 2.817a.436.436 0 0 0 0 .628.462.462 0 0 0 .32.132.448.448 0 0 0 .319-.132l2.877-2.817 2.878 2.817a.462.462 0 0 0 .319.132.442.442 0 0 0 .32-.132.436.436 0 0 0 0-.628L8.628 7.818l2.877-2.817a.436.436 0 0 0 0-.628z"/></g></svg>