<svg width="24" height="24" viewBox="0 0 24 24" xmlns="http://www.w3.org/2000/svg"><title>cancel</title><g fill-rule="nonzero" fill="#9198AD"><path d="M20.45 3.51A11.895 11.895 0 0 0 11.98 0a11.895 11.895 0 0 0-8.47 3.51A11.895 11.895 0 0 0 0 11.98c0 3.202 1.245 6.207 3.51 8.47a11.895 11.895 0 0 0 8.47 3.51c3.202 0 6.207-1.246 8.47-3.51a11.895 11.895 0 0 0 3.51-8.47c0-3.202-1.246-6.207-3.51-8.47zm-.963 15.977a10.55 10.55 0 0 1-7.507 3.111 10.55 10.55 0 0 1-7.508-3.11c-4.14-4.14-4.14-10.876 0-15.016a10.55 10.55 0 0 1 7.508-3.11c2.833 0 5.5 1.104 7.507 3.11 4.14 4.14 4.14 10.876 0 15.015z"/><path d="M17.259 6.7a.679.679 0 0 0-.963 0l-4.316 4.317L7.664 6.7a.679.679 0 0 0-.963 0 .679.679 0 0 0 0 .963l4.316 4.316L6.7 16.296a.679.679 0 0 0 0 .963.685.685 0 0 0 .479.202.664.664 0 0 0 .479-.202l4.316-4.316 4.316 4.316a.685.685 0 0 0 .479.202.656.656 0 0 0 .479-.202.679.679 0 0 0 0-.963l-4.306-4.316 4.316-4.316a.679.679 0 0 0 0-.963z"/></g></svg>