<svg width="16" height="11" viewBox="0 0 16 11" xmlns="http://www.w3.org/2000/svg"><title>quote</title><g fill="none" fill-rule="evenodd"><path d="M0-2h16v16H0z"/><path d="M5.834 4.634c.973.635 1.459 1.523 1.459 2.663s-.346 2.043-1.039 2.707c-.692.664-1.562.996-2.608.996s-1.915-.318-2.607-.953C.346 9.412 0 8.59 0 7.58S.324 5.572.972 4.59L4.2 0h3.624L5.834 4.634zm8.177 0c.972.635 1.459 1.523 1.459 2.663s-.347 2.043-1.04 2.707c-.692.664-1.56.996-2.607.996-1.046 0-1.915-.318-2.608-.953-.692-.635-1.038-1.458-1.038-2.468s.324-2.007.972-2.988L12.376 0H16l-1.989 4.634z" fill="#FFF"/></g></svg>