<svg width="16" height="16" viewBox="0 0 16 16" xmlns="http://www.w3.org/2000/svg"><title>twitter</title><path d="M8 0C3.589 0 0 3.589 0 8c0 4.41 3.589 8 8 8 4.41 0 8-3.59 8-8 0-4.411-3.588-8-8-8zm3.569 6.169c.003.08.005.16.005.24 0 2.432-1.851 5.237-5.239 5.237a5.208 5.208 0 0 1-2.823-.826 3.696 3.696 0 0 0 2.726-.762 1.843 1.843 0 0 1-1.72-1.28 1.856 1.856 0 0 0 .832-.03 1.842 1.842 0 0 1-1.477-1.83c.248.138.532.221.834.23a1.84 1.84 0 0 1-.57-2.458 5.228 5.228 0 0 0 3.795 1.925 1.841 1.841 0 0 1 3.138-1.68c.42-.083.813-.235 1.17-.447-.139.43-.43.79-.811 1.019a3.66 3.66 0 0 0 1.058-.29 3.704 3.704 0 0 1-.918.952z" fill-rule="nonzero" fill="#FFF"/></svg>