<svg width="144" height="16" viewBox="0 0 144 16" xmlns="http://www.w3.org/2000/svg"><title>Logotype</title><defs><linearGradient x1="58.023%" y1="0%" x2="85.567%" y2="122.383%" id="a"><stop stop-color="#FFB571" offset="0%"/><stop stop-color="#FF5B07" offset="100%"/></linearGradient></defs><g fill="none" fill-rule="evenodd"><path fill="#FFF" d="M31.992 2l-3.61 4.164L26.489 2h-3.65l3.085 6.61L19.48 16h4.24l3.76-4.381L29.459 16h3.663L29.93 9.187 36.246 2zM43.244 5.955c0 .297-.055.56-.168.802a1.56 1.56 0 0 1-.49.597c-.235.179-.544.322-.919.426-.394.11-.868.165-1.409.165a7.06 7.06 0 0 1-.484-.015l.582-2.882h.978c.35 0 .646.014.878.044.203.026.365.065.481.116a.974.974 0 0 1 .424.31.697.697 0 0 1 .127.437m2.763-2.218c-.405-.621-1.048-1.085-1.912-1.38C43.393 2.117 42.44 2 41.183 2h-3.588l-2.828 14h3.371l1.027-5.052c.323.03.654.045.99.045 1.003 0 1.907-.122 2.688-.361.798-.245 1.48-.595 2.03-1.042a4.593 4.593 0 0 0 1.289-1.644 4.933 4.933 0 0 0 .44-2.088c0-.799-.2-1.513-.595-2.12M48.943 2L46.11 16h9.341l.611-3.05h-5.958l.527-2.575h4.82l.611-3.05h-4.816l.462-2.275h5.611L57.945 2zM65.985 5.994c0 .463-.121.823-.37 1.1-.273.302-.66.527-1.151.666-.233.07-.496.117-.788.143-.312.028-.672.041-1.068.041h-.239l.576-2.896h1.23c.328 0 .607.012.827.037.196.021.353.052.464.09.19.068.319.16.39.284.087.148.13.323.13.535m2.313 2.867c.343-.42.597-.898.757-1.42a5.621 5.621 0 0 0 .231-1.63c0-.83-.225-1.565-.671-2.185-.447-.622-1.141-1.077-2.064-1.354a5.641 5.641 0 0 0-1.11-.212c-.4-.04-5.21-.06-5.21-.06l-2.78 14h3.315l.992-5.007h.766L65.009 16h3.679l-2.87-5.542c.442-.143.84-.316 1.19-.518a4.701 4.701 0 0 0 1.29-1.079M70.866 2l-.592 3.048h3.935L72.005 16h3.353l2.205-10.952h3.94L82.11 2zM87.948 2l-2.88 14h3.434l1.162-5.626h4.802l.62-3.048h-4.799l.47-2.277h5.512L96.904 2zM102.198 10.058h-2.119l.522-.98c.363-.675.715-1.363 1.054-2.06.107.649.224 1.32.353 2.008l.19 1.032zM103.737 2h-2.896l-7.635 14h3.778l1.749-3.296h3.739l.604 3.296h3.445l-2.784-14zM116.287 5.994c0 .463-.121.823-.371 1.1-.272.302-.66.527-1.15.666-.233.07-.496.117-.788.143-.31.028-.67.041-1.069.041h-.24l.577-2.896h1.23c.331 0 .61.012.826.036.197.022.354.052.465.09.19.068.319.162.39.285.088.148.13.323.13.535M118.6 8.86a4.14 4.14 0 0 0 .757-1.421 5.613 5.613 0 0 0 .232-1.63c0-.829-.226-1.564-.672-2.184-.447-.622-1.141-1.077-2.064-1.354a5.725 5.725 0 0 0-1.108-.212c-.4-.04-.884-.06-1.436-.06h-3.776l-2.78 14h3.315l.992-5.007h.766L115.311 16h3.678l-2.87-5.543c.442-.142.84-.315 1.19-.517a4.685 4.685 0 0 0 1.291-1.08M123.409 2l-2.834 14h9.342l.611-3.048h-5.96l.528-2.578h4.821l.611-3.048h-4.818l.464-2.278h5.612L132.41 2zM141.113 2.25a10.66 10.66 0 0 0-2.29-.25c-.743 0-1.43.103-2.039.307a4.706 4.706 0 0 0-1.607.896c-.451.391-.804.87-1.049 1.42a4.442 4.442 0 0 0-.366 1.815c0 .526.085 1.001.253 1.412.168.412.405.77.703 1.067.289.284.63.526 1.018.719.36.18.754.337 1.168.468a74 74 0 0 0 .997.29c.287.08.543.175.758.279.174.084.315.189.419.31.068.081.101.198.101.356 0 .26-.052.485-.16.685a1.408 1.408 0 0 1-.457.5c-.217.149-.49.266-.809.35a4.548 4.548 0 0 1-1.142.13 6.648 6.648 0 0 1-1.728-.219 8.394 8.394 0 0 1-1.492-.546l-.621-.303-.605 2.919.314.197c.178.11.403.221.688.336.274.11.593.212.947.302.35.089.738.163 1.154.22.426.06.87.09 1.325.09.876 0 1.686-.106 2.407-.315.74-.214 1.38-.532 1.906-.946a4.363 4.363 0 0 0 1.248-1.548c.29-.606.438-1.294.438-2.048 0-.612-.123-1.14-.365-1.573a3.147 3.147 0 0 0-.94-1.047 5.027 5.027 0 0 0-1.216-.622 32.44 32.44 0 0 0-1.229-.408c-.263-.082-.519-.17-.76-.262a2.373 2.373 0 0 1-.534-.28.995.995 0 0 1-.294-.325.904.904 0 0 1-.097-.45c0-.352.129-.613.408-.822.318-.238.791-.359 1.406-.359.508 0 1.023.058 1.531.173.518.117 2.385.817 2.385.817l.62-2.938s-1.646-.632-2.394-.797M9.666 10.097c-1.259 0-3.214.01-3.24.01-2.368-.021-3.716-1.294-3.716-1.294.13 2.257 2.097 3.734 4.422 3.755h2.03l.504-2.47zM10.494 6.058H6.2c-2.847 0-4.471-1.548-4.471-1.548.206 2.907 2.161 4.507 5.326 4.507H9.89l.604-2.96z"/><path d="M5.72 2C2.015 2 .492 0 .492 0 .73 3.651 2.809 5.005 6.87 5.005h4.774L9.435 16h8.65l.544-3.051h-5.09l.618-2.583h4.528l.658-2.98h-4.529l.364-2.311h4.915L20.713 2H5.718z" fill="url(#a)"/></g></svg>