<svg width="35" height="12" viewBox="0 0 35 12" xmlns="http://www.w3.org/2000/svg" xmlns:xlink="http://www.w3.org/1999/xlink"><title>visa</title><defs><path id="a" d="M3.393 0h3.393v5.863H0V0z"/><path id="c" d="M.15.295h8.436v11.243H.15V.295z"/></defs><g fill="none" fill-rule="evenodd"><path fill="#FFF" d="M13.933.656l-1.764 10.862h2.822L16.754.656zM9.795.656l-2.69 7.47-.318-1.608-.95-4.884S5.722.656 4.5.656H.051L0 .84s1.36.283 2.951 1.241l2.451 9.437h2.94L12.833.656H9.796z"/><g transform="translate(0 .462)"><mask id="b" fill="#fff"><use xlink:href="#a"/></mask><path d="M6.786 5.863L5.837.978S5.722 0 4.5 0H.051l-.05.184s2.136.444 4.186 2.107c1.96 1.59 2.6 3.572 2.6 3.572" fill="#F9A533" mask="url(#b)"/></g><path d="M28.885 7.676l1.483-4.066.834 4.066h-2.317zm3.105 3.842h2.59L32.323.656h-2.268c-1.048 0-1.303.809-1.303.809l-4.208 10.053h2.941l.587-1.613h3.588l.331 1.613z" fill="#FFF"/><g transform="translate(16.579 .166)"><mask id="d" fill="#fff"><use xlink:href="#c"/></mask><path d="M8.184 3.101L8.586.77S7.344.295 6.05.295c-1.4 0-4.726.614-4.726 3.596 0 2.806 3.904 2.842 3.904 4.315 0 1.473-3.502 1.21-4.657.28l-.42 2.439s1.26.614 3.185.614c1.926 0 4.831-1 4.831-3.72 0-2.823-3.938-3.087-3.938-4.314 0-1.229 2.75-1.07 3.956-.404" fill="#FFF" mask="url(#d)"/></g></g></svg>